<svg width="12" height="13" viewBox="0 0 12 13" fill="none" xmlns="http://www.w3.org/2000/svg">
<circle cx="6" cy="6" r="5.7" fill="white" stroke="#8F959E" stroke-width="0.6"/>
<path d="M8.96581 4.58942H7.90218C7.86127 4.36214 7.78513 4.16214 7.67377 3.98942C7.5624 3.81669 7.42604 3.6701 7.26468 3.54964C7.10331 3.42919 6.92263 3.33828 6.72263 3.27692C6.5249 3.21555 6.31468 3.18487 6.09195 3.18487C5.68968 3.18487 5.32945 3.28601 5.01127 3.48828C4.69536 3.69055 4.44536 3.98714 4.26127 4.37805C4.07945 4.76896 3.98854 5.24624 3.98854 5.80987C3.98854 6.37805 4.07945 6.8576 4.26127 7.24851C4.44536 7.63942 4.69649 7.93487 5.01468 8.13487C5.33286 8.33487 5.69081 8.43487 6.08854 8.43487C6.30899 8.43487 6.51808 8.40533 6.71581 8.34624C6.91581 8.28487 7.09649 8.1951 7.25786 8.07692C7.41922 7.95874 7.55558 7.81442 7.66695 7.64396C7.78058 7.47124 7.85899 7.27351 7.90218 7.05078L8.96581 7.05419C8.90899 7.39737 8.79877 7.71328 8.63513 8.00192C8.47377 8.28828 8.26581 8.53601 8.01127 8.7451C7.75899 8.95192 7.47036 9.11214 7.14536 9.22578C6.82036 9.33942 6.46581 9.39624 6.08172 9.39624C5.47718 9.39624 4.93854 9.25305 4.46581 8.96669C3.99308 8.67805 3.62036 8.26555 3.34763 7.72919C3.07718 7.19283 2.94195 6.55305 2.94195 5.80987C2.94195 5.06442 3.07831 4.42464 3.35104 3.89055C3.62377 3.35419 3.99649 2.94283 4.46922 2.65646C4.94195 2.36783 5.47945 2.22351 6.08172 2.22351C6.45218 2.22351 6.79763 2.27692 7.11808 2.38374C7.44081 2.48828 7.73058 2.64283 7.9874 2.84737C8.24422 3.04964 8.45672 3.29737 8.6249 3.59055C8.79308 3.88146 8.90672 4.21442 8.96581 4.58942Z" fill="#8F959E"/>
</svg>
