<svg width="297" height="290" viewBox="0 0 297 290" fill="none" xmlns="http://www.w3.org/2000/svg">
<path d="M193.24 268.499H165.785C165.707 268.499 165.631 268.469 165.575 268.414C165.52 268.36 165.488 268.286 165.488 268.209C165.488 268.133 165.52 268.059 165.575 268.004C165.631 267.95 165.707 267.919 165.785 267.919H193.24C193.279 267.919 193.318 267.927 193.354 267.942C193.39 267.956 193.422 267.977 193.45 268.004C193.478 268.031 193.499 268.063 193.514 268.098C193.529 268.134 193.537 268.171 193.537 268.209C193.537 268.248 193.529 268.285 193.514 268.32C193.499 268.356 193.478 268.388 193.45 268.414C193.422 268.441 193.39 268.463 193.354 268.477C193.318 268.492 193.279 268.499 193.24 268.499Z" fill="#404B7C"/>
<path d="M117.381 268.499H89.9318C89.853 268.499 89.7775 268.469 89.7218 268.415C89.6661 268.36 89.6348 268.286 89.6348 268.209C89.6348 268.133 89.6661 268.059 89.7218 268.004C89.7775 267.95 89.853 267.919 89.9318 267.919H117.386C117.465 267.92 117.54 267.952 117.596 268.006C117.651 268.061 117.681 268.135 117.68 268.212C117.68 268.289 117.648 268.363 117.591 268.417C117.535 268.47 117.459 268.5 117.381 268.499Z" fill="#404B7C"/>
<path d="M175.978 270.28H133.151C133.072 270.28 132.997 270.249 132.941 270.195C132.885 270.141 132.854 270.067 132.854 269.99C132.854 269.913 132.885 269.839 132.941 269.785C132.997 269.731 133.072 269.7 133.151 269.7H175.978C176.057 269.7 176.133 269.731 176.188 269.785C176.244 269.839 176.275 269.913 176.275 269.99C176.275 270.067 176.244 270.141 176.188 270.195C176.133 270.249 176.057 270.28 175.978 270.28Z" fill="#404B7C"/>
<path d="M87.7872 270.28H76.6735C76.5947 270.28 76.5191 270.249 76.4634 270.195C76.4078 270.141 76.3765 270.067 76.3765 269.99C76.3765 269.913 76.4078 269.839 76.4634 269.785C76.5191 269.731 76.5947 269.7 76.6735 269.7H87.7872C87.8262 269.7 87.8648 269.707 87.9009 269.722C87.9369 269.737 87.9696 269.758 87.9972 269.785C88.0248 269.812 88.0467 269.844 88.0616 269.879C88.0765 269.914 88.0842 269.952 88.0842 269.99C88.0842 270.028 88.0765 270.066 88.0616 270.101C88.0467 270.136 88.0248 270.168 87.9972 270.195C87.9696 270.222 87.9369 270.243 87.9009 270.258C87.8648 270.272 87.8262 270.28 87.7872 270.28Z" fill="#404B7C"/>
<path d="M95.2065 155.173C95.2065 155.173 105.257 166.408 129.261 164.79C153.264 163.171 159.958 150.29 159.958 150.29L154.155 124.045L105.293 130.117L95.2065 155.173Z" fill="#9AB3DA"/>
<path d="M143.029 242.933L142.643 251.633C141.971 252.012 141.207 252.212 140.431 252.212C139.654 252.212 138.891 252.012 138.218 251.633L137.553 242.289L143.029 242.933Z" fill="#ECBDBB"/>
<path d="M134.904 259.26C134.73 262.056 134.972 264.861 135.622 267.589H137.559C137.559 267.589 138.444 262.496 139.442 260.229C140.44 257.961 135.842 257.247 134.904 259.26Z" fill="#0D1D54"/>
<path d="M137.552 250.334C137.552 250.334 139.655 251.36 143.302 250.334C143.302 250.334 149.278 260.165 151.321 261.934C153.365 263.703 157.855 265.657 159.394 266.469C160.932 267.281 149.106 267.873 146.326 267.386C143.546 266.899 141.235 263.5 138.913 261.661C137.703 260.653 136.34 259.833 134.874 259.231C134.874 259.231 135.509 254.22 137.552 250.334Z" fill="#F68D88"/>
<path d="M152.064 126.66C152.064 126.66 155.658 145.075 155.159 152.691C154.66 160.306 150.347 192.711 150.347 192.711L144.871 243.751C144.871 243.751 138.651 244.911 135.747 243.345C135.747 243.345 134.832 229.088 133.84 221.635C132.848 214.182 133.84 207.054 134.505 201.138C134.505 201.138 130.276 176.511 129.278 154.802C128.28 133.093 131.268 121.104 139.899 120.292C148.53 119.48 152.064 126.66 152.064 126.66Z" fill="#0D1D54"/>
<path d="M138.55 242.307C138.476 242.307 138.405 242.281 138.35 242.232C138.295 242.184 138.261 242.117 138.253 242.046C138.17 241.268 136.151 222.964 136.263 218.463C136.376 213.962 137.689 201.393 137.701 201.266L134.137 154.036C134.134 153.998 134.139 153.96 134.152 153.924C134.164 153.888 134.184 153.854 134.209 153.825C134.261 153.767 134.334 153.732 134.413 153.726C134.492 153.721 134.57 153.746 134.629 153.797C134.689 153.847 134.725 153.919 134.731 153.996L138.295 201.277C138.295 201.451 136.964 214.003 136.857 218.48C136.751 222.958 138.824 241.796 138.847 241.988C138.856 242.064 138.833 242.14 138.784 242.2C138.735 242.259 138.664 242.298 138.586 242.307H138.556H138.55Z" fill="#9AB3DA"/>
<path d="M105.578 242.933L104.544 252.3C103.871 252.679 103.108 252.879 102.331 252.879C101.554 252.879 100.791 252.679 100.119 252.3V242.283L105.578 242.933Z" fill="#ECBDBB"/>
<path d="M96.7805 259.892C96.6069 262.688 96.849 265.493 97.4992 268.221H99.4357C99.4357 268.221 100.321 263.129 101.319 260.861C102.317 258.593 97.725 257.891 96.7805 259.892Z" fill="#0D1D54"/>
<path d="M99.4358 250.983C99.4358 250.983 101.539 252.01 105.186 250.983C105.186 250.983 111.161 260.814 113.205 262.583C115.248 264.352 119.739 266.307 121.277 267.119C122.816 267.931 110.989 268.523 108.209 268.035C105.429 267.548 103.119 264.149 100.796 262.311C99.5859 261.302 98.2234 260.483 96.7568 259.881C96.7568 259.881 97.4162 254.869 99.4358 250.983Z" fill="#F68D88"/>
<path d="M133.614 136.816L132.165 155.881C132.165 155.881 119.305 192.386 116.65 200.326C113.994 208.266 108.108 242.556 108.108 242.556C108.108 242.556 106.326 244.145 102.465 244.145C98.6039 244.145 97.7129 242.341 97.7129 242.341C97.7129 242.341 96.8813 216.526 97.7129 209.861C98.5445 203.197 101.2 193.175 101.366 188.477C101.532 183.779 101.2 158.021 102.364 147.297C103.528 136.573 108.666 120.112 120.534 120.176C132.402 120.24 134.19 129.241 133.614 136.816Z" fill="#0D1D54"/>
<path d="M100.612 241.547C100.573 241.546 100.534 241.538 100.499 241.523C100.463 241.507 100.431 241.485 100.404 241.458C100.377 241.43 100.355 241.398 100.341 241.363C100.327 241.327 100.32 241.289 100.321 241.251C100.321 241.094 100.547 225.492 100.873 217.372C101.123 211.132 102.34 203.238 103.142 198.018C103.398 196.359 103.618 194.926 103.736 193.911C104.241 190.089 105.281 182.137 105.281 175.931C105.281 169.836 107.799 137.889 107.823 137.564C107.825 137.526 107.835 137.488 107.853 137.454C107.87 137.42 107.895 137.389 107.925 137.364C107.955 137.339 107.99 137.32 108.027 137.309C108.065 137.298 108.105 137.294 108.144 137.298C108.183 137.301 108.221 137.311 108.256 137.328C108.291 137.346 108.322 137.37 108.347 137.399C108.373 137.428 108.392 137.462 108.404 137.498C108.416 137.534 108.42 137.573 108.417 137.611C108.417 137.93 105.875 169.859 105.875 175.931C105.875 182.195 104.829 190.17 104.324 194.004C104.188 195.025 103.968 196.463 103.73 198.128C102.929 203.348 101.717 211.213 101.467 217.419C101.141 225.539 100.915 241.123 100.915 241.28C100.909 241.354 100.874 241.423 100.818 241.472C100.761 241.522 100.688 241.549 100.612 241.547Z" fill="#9AB3DA"/>
<path d="M132.165 156.171C132.105 156.17 132.046 156.152 131.997 156.118C131.947 156.083 131.91 156.035 131.889 155.98C131.868 155.924 131.865 155.864 131.881 155.807C131.896 155.75 131.929 155.699 131.975 155.66L134.256 153.799C134.735 153.406 135.127 152.922 135.408 152.377C135.689 151.831 135.853 151.236 135.89 150.626L136.769 135.349C136.773 135.272 136.809 135.2 136.868 135.149C136.927 135.098 137.005 135.072 137.083 135.076C137.162 135.081 137.236 135.116 137.288 135.173C137.341 135.231 137.367 135.307 137.363 135.384L136.484 150.661C136.444 151.35 136.26 152.024 135.943 152.642C135.626 153.259 135.184 153.807 134.642 154.251L132.361 156.113C132.305 156.154 132.235 156.175 132.165 156.171Z" fill="#9AB3DA"/>
<path d="M132.165 156.171C132.087 156.165 132.015 156.129 131.964 156.072C131.913 156.014 131.887 155.939 131.892 155.863L133.341 135.79C133.343 135.752 133.353 135.715 133.37 135.681C133.388 135.647 133.412 135.616 133.441 135.591C133.47 135.567 133.504 135.548 133.541 135.536C133.578 135.524 133.617 135.52 133.656 135.523C133.734 135.529 133.806 135.564 133.857 135.622C133.908 135.679 133.934 135.754 133.929 135.83L132.462 155.898C132.457 155.972 132.424 156.041 132.369 156.092C132.314 156.143 132.241 156.171 132.165 156.171Z" fill="#9AB3DA"/>
<path d="M146.267 67.2336C146.267 67.2336 151.826 72.6624 158.242 96.5294L157.576 109.655C157.576 109.655 153.068 111.627 150.413 110.652C147.758 109.678 145.352 103.199 143.362 90.48C142.227 82.6166 143.228 74.5999 146.267 67.2336Z" fill="#F68D88"/>
<path d="M156.513 95.99C155.058 97.6841 154.031 99.6885 153.515 101.842C152.999 103.995 153.008 106.236 153.543 108.385C154.891 113.848 158.717 114.701 158.717 114.701L162.922 112.485C162.922 112.485 165.108 107.167 164.663 101.981C164.217 96.7962 161.889 93.96 161.889 93.96L156.513 95.99Z" fill="#404B7C"/>
<path d="M197.873 87C198.527 85.9676 198.384 85.26 197.648 85.5268C197.315 85.637 196.59 85.9618 195.759 86.362C196.353 85.2832 195.86 84.4364 194.909 84.854C194.518 85.0463 194.14 85.2613 193.775 85.4978C193.858 84.68 193.311 84.2276 192.587 84.6742C191.396 85.5655 190.257 86.5221 189.177 87.5394L187.609 87.3074C188.142 86.4687 188.615 85.5946 189.023 84.6916C189.189 84.071 188.803 83.5316 188.387 83.7172C188.09 83.8738 184.859 86.7564 183.041 88.4094C181.473 89.1228 179.976 89.871 179.976 89.871L161.2 96.338C161.2 96.338 158.877 102.718 160.867 108.379C160.867 108.379 181.883 93.2582 183.32 92.6086C184.758 91.959 193.329 91.5298 194.44 91.205C195.551 90.8802 198.978 87.638 199.192 86.884C199.287 86.5766 198.675 86.71 197.873 87Z" fill="#ECBDBB"/>
<path d="M194.405 88.7864H194.351L189.118 87.812C189.039 87.7974 188.97 87.7528 188.924 87.6881C188.879 87.6234 188.862 87.5438 188.877 87.4669C188.892 87.39 188.938 87.3221 189.004 87.278C189.071 87.2339 189.152 87.2174 189.231 87.232L194.375 88.189L197.761 86.7158C197.797 86.6974 197.836 86.6863 197.876 86.6832C197.917 86.6802 197.957 86.6853 197.996 86.6981C198.034 86.711 198.069 86.7314 198.099 86.7581C198.129 86.7848 198.153 86.8172 198.17 86.8532C198.187 86.8893 198.195 86.9284 198.196 86.968C198.197 87.0076 198.189 87.0468 198.173 87.0834C198.158 87.12 198.135 87.1531 198.106 87.1806C198.077 87.2082 198.042 87.2296 198.004 87.2436L194.535 88.7516C194.495 88.7729 194.45 88.7848 194.405 88.7864Z" fill="#404B7C"/>
<path d="M193.888 87.9048C193.824 87.9053 193.762 87.886 193.711 87.8496C193.66 87.8133 193.622 87.7619 193.602 87.7029C193.583 87.6439 193.584 87.5805 193.604 87.5218C193.624 87.4632 193.663 87.4125 193.715 87.377L195.592 86.1068C195.657 86.0677 195.735 86.0542 195.809 86.0692C195.884 86.0843 195.949 86.1267 195.993 86.1877C196.036 86.2487 196.054 86.3237 196.043 86.3971C196.031 86.4706 195.991 86.5369 195.931 86.5824L194.054 87.8526C194.005 87.8859 193.947 87.9041 193.888 87.9048Z" fill="#404B7C"/>
<path d="M191.91 87.2727C191.848 87.2735 191.787 87.2555 191.736 87.2211C191.685 87.1867 191.647 87.1377 191.626 87.0808C191.605 87.024 191.603 86.9621 191.62 86.904C191.636 86.8458 191.671 86.7943 191.72 86.7565L193.585 85.2601C193.645 85.2108 193.724 85.1872 193.802 85.1942C193.841 85.1977 193.879 85.2087 193.913 85.2264C193.948 85.2442 193.979 85.2684 194.004 85.2978C194.028 85.3271 194.047 85.3609 194.059 85.3973C194.07 85.4338 194.075 85.472 194.071 85.51C194.067 85.548 194.056 85.5849 194.038 85.6186C194.02 85.6524 193.995 85.6823 193.965 85.7067L192.1 87.2089C192.046 87.2511 191.979 87.2736 191.91 87.2727Z" fill="#404B7C"/>
<path d="M129.26 60.5868L117.149 70.876C117.149 70.876 104.704 130.981 105.197 130.981C105.69 130.981 121.901 136.004 136.614 133.249C151.327 130.494 153.983 126.771 153.983 126.771L146.855 87.9106L145.281 68.7706L129.26 60.5868Z" fill="#9AB3DA"/>
<path d="M127.116 134.357C119.981 134.269 112.887 133.295 106.005 131.457C105.613 131.358 105.275 131.271 105.203 131.266C105.165 131.266 105.126 131.258 105.09 131.243C105.055 131.229 105.022 131.207 104.995 131.18C104.968 131.153 104.947 131.121 104.933 131.086C104.918 131.051 104.911 131.013 104.912 130.976C104.914 130.898 104.946 130.824 105.003 130.77C105.06 130.716 105.136 130.686 105.215 130.686C105.532 130.732 105.843 130.803 106.148 130.9C120.677 134.589 130.716 134.061 136.572 132.959C151.001 130.256 153.727 126.637 153.751 126.579C153.772 126.546 153.8 126.517 153.833 126.494C153.866 126.472 153.904 126.456 153.943 126.448C153.983 126.44 154.023 126.44 154.063 126.448C154.102 126.456 154.14 126.472 154.173 126.494C154.206 126.516 154.234 126.545 154.255 126.579C154.277 126.612 154.291 126.649 154.297 126.688C154.303 126.727 154.301 126.767 154.291 126.805C154.281 126.843 154.263 126.879 154.238 126.91C154.125 127.066 151.345 130.767 136.685 133.51C133.53 134.086 130.326 134.37 127.116 134.357Z" fill="#404B7C"/>
<path d="M121.574 130.436C116.139 130.436 112.397 130.094 112.301 130.082C112.262 130.079 112.225 130.067 112.19 130.049C112.156 130.031 112.125 130.007 112.1 129.977C112.075 129.947 112.057 129.913 112.045 129.877C112.034 129.84 112.03 129.801 112.034 129.763C112.038 129.725 112.05 129.688 112.068 129.655C112.087 129.621 112.112 129.591 112.142 129.567C112.173 129.543 112.207 129.524 112.245 129.513C112.283 129.502 112.322 129.499 112.361 129.502C112.598 129.502 136.24 131.683 151.369 124.99C151.44 124.964 151.518 124.965 151.588 124.993C151.658 125.022 151.714 125.075 151.745 125.142C151.776 125.209 151.779 125.286 151.755 125.356C151.73 125.425 151.679 125.483 151.612 125.518C142.352 129.624 129.955 130.436 121.574 130.436Z" fill="#404B7C"/>
<path d="M129.261 107.979C127.823 132.495 118.307 152.697 118.307 152.697C108.904 157.882 95.2065 155.179 95.2065 155.179C95.2065 155.179 104.152 119.973 106.362 105.711C108.572 91.4486 110.264 70.3946 110.264 70.3946C110.264 70.3946 119.43 62.5472 125.952 60.1344C125.655 63.162 124.55 75.69 125.661 84.651C126.938 94.9054 129.261 107.979 129.261 107.979Z" fill="#F68D88"/>
<path d="M132.165 60.1344C137.104 62.0194 141.83 64.3984 146.267 67.2336V71.2008C146.267 71.2008 149.753 82.5398 149.92 84.5408C150.086 86.5418 148.346 93.612 148.346 93.612C148.346 93.612 158.8 133.052 159.958 150.237C155.682 149.957 151.437 149.334 147.265 148.376C147.265 148.376 147.265 133.661 146.742 122.751C146.481 116.615 145.704 110.51 144.419 104.499C144.419 104.499 138.111 78.8162 136.62 73.4164C135.129 68.0166 132.165 60.1344 132.165 60.1344Z" fill="#F68D88"/>
<path d="M151.939 108.222C151.882 108.222 151.826 108.204 151.78 108.169C151.735 108.134 151.703 108.086 151.69 108.031C149.706 99.789 148.126 93.7628 148.096 93.699C148.086 93.6591 148.086 93.6172 148.096 93.5772C148.096 93.5076 149.825 86.5476 149.664 84.5814C149.504 82.6152 146.059 71.3806 146.023 71.2414C146.02 71.2184 146.02 71.1949 146.023 71.1718V68.3762C146.023 68.3101 146.05 68.2467 146.098 68.1999C146.146 68.1531 146.211 68.1268 146.278 68.1268C146.346 68.1268 146.411 68.1531 146.459 68.1999C146.507 68.2467 146.534 68.3101 146.534 68.3762V71.1312C146.783 71.949 150.021 82.5224 150.181 84.5118C150.341 86.5012 148.797 92.8638 148.613 93.6004C148.785 94.25 150.318 100.079 152.177 107.88C152.185 107.912 152.186 107.945 152.181 107.978C152.176 108.01 152.164 108.041 152.146 108.069C152.129 108.098 152.105 108.122 152.078 108.141C152.051 108.16 152.02 108.174 151.987 108.182H151.927L151.939 108.222Z" fill="#ECBDBB"/>
<path d="M128.043 58.0001C124.698 58.5105 121.794 65.7778 120.546 72.2042L124.295 75.5508L120.546 82.0294C120.546 82.0294 126.16 95.7464 129.254 107.95C129.254 107.95 127.817 88.0788 126.819 77.111C127.015 65.8532 132.319 65.4414 136.608 76.0322C140.766 87.754 144.407 104.493 144.407 104.493C144.407 104.493 144.847 87.754 143.968 78.735L138.438 74.5765L140.095 70.3657C140.095 70.3657 134.404 57.0489 128.043 58.0001Z" fill="#F68D88"/>
<path d="M144.413 104.771C144.38 104.77 144.347 104.763 144.316 104.75C144.285 104.737 144.258 104.718 144.234 104.694C144.211 104.67 144.193 104.642 144.181 104.612C144.169 104.581 144.163 104.549 144.164 104.516C144.164 104.348 144.592 87.8178 143.73 78.8916L138.283 74.82C138.24 74.7875 138.209 74.7424 138.194 74.6913C138.179 74.6401 138.181 74.5857 138.2 74.5358L139.822 70.4178C138.554 67.597 136.959 64.9271 135.07 62.4602C135.028 62.4079 135.009 62.3416 135.018 62.2758C135.026 62.21 135.061 62.1501 135.114 62.1093C135.168 62.0686 135.236 62.0503 135.303 62.0584C135.371 62.0666 135.432 62.1005 135.474 62.1528C137.399 64.6832 139.019 67.4214 140.303 70.3134C140.327 70.373 140.327 70.4395 140.303 70.499L138.711 74.559L144.093 78.619C144.121 78.6397 144.144 78.6658 144.162 78.6957C144.179 78.7257 144.19 78.7588 144.194 78.793C145.073 87.725 144.639 104.417 144.639 104.586C144.626 104.636 144.597 104.68 144.556 104.713C144.516 104.747 144.466 104.767 144.413 104.771Z" fill="#ECBDBB"/>
<path d="M127.983 103.565C127.928 103.564 127.875 103.547 127.831 103.514C127.787 103.482 127.755 103.437 127.74 103.385C124.633 92.7362 120.356 82.2556 120.315 82.1512C120.299 82.1177 120.29 82.081 120.29 82.0439C120.29 82.0067 120.299 81.9701 120.315 81.9366L123.962 75.6262L120.362 72.413C120.33 72.384 120.306 72.3474 120.293 72.3068C120.279 72.2662 120.277 72.2229 120.285 72.181C120.935 68.5251 122.136 64.9835 123.849 61.6714C123.863 61.6389 123.883 61.6097 123.909 61.5855C123.935 61.5613 123.966 61.5427 124 61.531C124.034 61.5193 124.07 61.5147 124.106 61.5175C124.142 61.5203 124.176 61.5305 124.208 61.5473C124.24 61.5641 124.267 61.5872 124.289 61.6152C124.311 61.6431 124.326 61.6752 124.334 61.7093C124.342 61.7435 124.343 61.7789 124.336 61.8133C124.329 61.8478 124.315 61.8804 124.295 61.9092C122.626 65.1346 121.451 68.5817 120.808 72.1404L124.449 75.3942C124.492 75.4326 124.519 75.4839 124.528 75.5398C124.537 75.5956 124.526 75.6526 124.497 75.7016L120.808 82.0816C121.277 83.2416 125.263 93.1712 128.203 103.252C128.222 103.315 128.214 103.382 128.182 103.44C128.149 103.497 128.095 103.54 128.031 103.559L127.983 103.565Z" fill="#ECBDBB"/>
<path d="M110.264 70.3888C106.492 73.3584 103.76 83.2474 110.264 90.9672C116.079 97.8692 131.583 111.621 134.981 112.271C138.378 112.92 141.782 108.704 141.782 108.704C141.782 108.704 142.114 99.3192 141.033 97.3298C140.767 96.7734 140.374 96.2834 139.886 95.8966C139.397 95.5098 138.825 95.2363 138.212 95.0968L135.973 96.3902C135.973 96.3902 126.272 82.4702 121.206 77.517C118.053 74.4863 114.34 72.0674 110.264 70.3888Z" fill="#F68D88"/>
<path d="M135.717 112.59C135.454 112.589 135.191 112.564 134.933 112.514C131.405 111.841 116.121 98.1476 110.407 91.524C110.383 91.4991 110.365 91.4698 110.354 91.438C110.343 91.4062 110.338 91.3725 110.34 91.3389C110.343 91.3052 110.352 91.2724 110.368 91.2424C110.383 91.2124 110.405 91.1858 110.432 91.1642C110.458 91.1427 110.489 91.1266 110.522 91.1169C110.555 91.1073 110.59 91.1042 110.624 91.108C110.658 91.1118 110.692 91.1224 110.722 91.1391C110.752 91.1557 110.778 91.1781 110.799 91.205C117.012 98.4028 131.797 111.412 135.034 112.027C138.004 112.607 141.099 109.127 141.538 108.617C141.538 107.683 141.8 99.267 140.819 97.4516C140.574 96.9449 140.219 96.4959 139.779 96.1356C139.339 95.7752 138.825 95.5118 138.271 95.3636L136.115 96.6106C136.059 96.642 135.993 96.6517 135.93 96.6377C135.868 96.6237 135.813 96.5871 135.776 96.5352C135.681 96.396 126.029 82.563 121.045 77.6968C118.72 75.4664 116.087 73.5648 113.222 72.0476C113.171 72.0124 113.134 71.9599 113.12 71.9001C113.106 71.8403 113.114 71.7775 113.145 71.7236C113.175 71.6698 113.224 71.6287 113.283 71.6082C113.343 71.5877 113.408 71.5893 113.466 71.6126C116.372 73.1537 119.043 75.0845 121.402 77.3488C126.1 81.9308 134.868 94.3602 136.061 96.0654L138.093 94.9054C138.143 94.8756 138.201 94.8633 138.259 94.8706C138.913 95.0152 139.523 95.3036 140.045 95.7137C140.567 96.1238 140.986 96.6448 141.271 97.237C142.37 99.267 142.061 108.35 142.049 108.738C142.047 108.791 142.029 108.842 141.996 108.883C141.853 109.04 138.936 112.59 135.717 112.59Z" fill="#ECBDBB"/>
<path d="M136.162 95.3288L141.402 92.104C141.402 92.104 144.728 93.3568 145.767 98.2172C146.807 103.078 145.173 108.506 145.173 108.506C145.173 108.506 140.273 112.236 140.273 112.114C137.801 110.42 135.951 107.997 134.992 105.2C133.145 100.137 136.162 95.3288 136.162 95.3288Z" fill="#404B7C"/>
<path d="M141.449 94.4704L163.427 83.1314C163.427 83.1314 168.809 78.822 171.149 77.5692C173.489 76.3164 174.47 76.5136 174.386 77.1226C174.303 77.7316 171.898 79.3498 171.523 80.5678C171.149 81.7858 173.483 81.3798 174.392 81.2174C175.301 81.055 180.071 79.4774 181.603 78.8684C183.136 78.2594 183.178 79.518 182.791 80.1618C182.405 80.8056 180.386 81.7394 180.386 81.7394C180.096 82.532 179.634 83.2541 179.031 83.8564C178.778 84.6307 178.249 85.2909 177.541 85.7182C177.074 86.4244 176.506 87.0612 175.854 87.609C175.022 88.189 165.548 88.189 164.324 88.363C163.1 88.537 148.114 102.73 144.467 106.076C144.467 106.082 138.913 102.521 141.449 94.4704Z" fill="#ECBDBB"/>
<path d="M175.414 84.0188C175.335 84.0334 175.254 84.0169 175.187 83.9728C175.121 83.9288 175.075 83.8608 175.06 83.7839C175.046 83.707 175.062 83.6274 175.108 83.5627C175.153 83.498 175.222 83.4534 175.301 83.4388C176.489 82.9806 179.138 81.8728 179.138 81.8728L179.37 82.4064C179.37 82.4064 176.685 83.5142 175.521 83.9724C175.489 83.9946 175.452 84.0104 175.414 84.0188Z" fill="#404B7C"/>
<path d="M175.23 85.695C175.151 85.7065 175.071 85.687 175.007 85.6408C174.943 85.5946 174.9 85.5254 174.889 85.4485C174.877 85.3716 174.897 85.2932 174.944 85.2307C174.991 85.1682 175.062 85.1265 175.141 85.115C176.153 84.7835 177.144 84.3962 178.111 83.955C178.181 83.9282 178.259 83.9282 178.329 83.9551C178.398 83.982 178.455 84.0338 178.488 84.0999C178.52 84.1661 178.525 84.2418 178.503 84.3117C178.481 84.3817 178.432 84.4407 178.366 84.477C177.383 84.9335 176.374 85.3344 175.343 85.6776L175.23 85.695Z" fill="#404B7C"/>
<path d="M174.226 87.1219C174.187 87.126 174.148 87.1227 174.11 87.112C174.072 87.1013 174.037 87.0834 174.006 87.0595C173.945 87.0111 173.905 86.9407 173.896 86.8638C173.888 86.7868 173.911 86.7097 173.96 86.6494C174.01 86.589 174.082 86.5503 174.161 86.5419C175.001 86.3142 175.825 86.0313 176.626 85.6951C176.662 85.6785 176.701 85.6691 176.741 85.6677C176.781 85.6662 176.821 85.6727 176.858 85.6866C176.896 85.7005 176.93 85.7217 176.958 85.7488C176.987 85.7759 177.01 85.8084 177.026 85.8443C177.041 85.8802 177.049 85.9189 177.049 85.9579C177.049 85.9969 177.041 86.0355 177.025 86.0714C177.01 86.1073 176.987 86.1397 176.958 86.1668C176.929 86.1938 176.895 86.2148 176.857 86.2287C176.024 86.5806 175.167 86.8752 174.291 87.1103H174.226V87.1219Z" fill="#0D1D54"/>
<path d="M121.461 38.86C121.461 38.86 119.056 34.3417 115.236 33.4079C111.417 32.4741 108.892 36.308 108.393 40.9828C107.894 45.6576 111.452 49.5899 116.709 45.1529C120.879 41.6729 121.461 38.86 121.461 38.86Z" fill="#0D1D54"/>
<path d="M120.463 38.9179C120.463 38.9179 114.369 42.1601 115.034 47.5599C115.699 52.9597 125.405 57.1995 130.633 54.1197C135.86 51.0399 134.571 46.6261 134.571 46.6261C134.571 46.6261 139.174 46.2201 139.257 41.8875C139.341 37.5549 137.06 36.7835 134.696 37.2475C134.696 37.2475 135.569 31.8593 130.466 31.3721C125.364 30.8849 121.503 33.5703 120.463 38.9179Z" fill="#0D1D54"/>
<path d="M115.123 45.6924H115.064C115.026 45.6848 114.989 45.6699 114.957 45.6486C114.925 45.6273 114.897 45.5999 114.875 45.5682C114.854 45.5364 114.839 45.5008 114.832 45.4634C114.824 45.426 114.824 45.3875 114.832 45.3502C115.705 41.18 120.137 38.773 120.321 38.6744C120.39 38.6375 120.472 38.629 120.547 38.6507C120.623 38.6725 120.687 38.7227 120.725 38.7904C120.762 38.8581 120.771 38.9377 120.749 39.0116C120.727 39.0856 120.675 39.1479 120.606 39.1848C120.564 39.1848 116.234 41.5628 115.414 45.472C115.398 45.5354 115.361 45.5916 115.308 45.6316C115.255 45.6716 115.19 45.693 115.123 45.6924Z" fill="#9AB3DA"/>
<path d="M136.62 76.0613C136.131 77.8223 134.987 79.3421 133.412 80.3243C129.848 80.0575 126.831 77.1401 126.831 77.1401V65.743C126.789 62.64 126.053 55.1696 125.773 52.4436L125.667 51.4344L131.143 52.5944C131.143 52.5944 131.262 55.1174 131.488 57.9188C131.707 60.5869 132.04 63.5216 132.468 64.786C133.353 67.3612 136.62 76.0613 136.62 76.0613Z" fill="#ECBDBB"/>
<path d="M131.482 57.9015C128.328 56.9503 126.641 54.462 125.768 52.4436L125.661 51.4344L131.137 52.5944C131.137 52.5944 131.274 55.1001 131.482 57.9015Z" fill="#404B7C"/>
<path d="M133.573 41.6324C135.118 44.28 135.986 47.2525 136.103 50.2976C136.228 55.1986 132.248 55.7264 128.221 54.0618C124.194 52.3972 121.687 46.7712 121.687 46.7712C121.687 46.7712 119.863 41.9108 123.219 39.6836C124.022 39.1234 124.933 38.7285 125.896 38.5228C126.86 38.3172 127.856 38.3052 128.825 38.4875C129.793 38.6698 130.714 39.0426 131.53 39.5833C132.346 40.1239 133.041 40.8211 133.573 41.6324Z" fill="#ECBDBB"/>
<path d="M123.742 41.2264C123.742 41.2264 129.088 45.356 135.729 42.6416C135.729 42.6416 130.834 33.6516 123.035 38.0016C115.236 42.3516 118.972 48.5344 123.201 49.503C123.201 49.532 125.524 46.8582 123.742 41.2264Z" fill="#0D1D54"/>
<path d="M125.928 51.6199L123.962 48.8649C123.962 48.8649 121.889 47.0263 119.923 48.2153C117.957 49.4043 120.053 54.7577 125.928 51.6199Z" fill="#ECBDBB"/>
<path d="M124.657 50.8718C124.59 50.8714 124.525 50.849 124.473 50.808C123.354 49.9898 121.978 49.5795 120.582 49.648C120.543 49.6518 120.504 49.6481 120.466 49.637C120.429 49.626 120.394 49.6078 120.363 49.5836C120.333 49.5593 120.308 49.5295 120.289 49.4958C120.271 49.4621 120.259 49.4251 120.255 49.387C120.251 49.3489 120.255 49.3105 120.267 49.2738C120.278 49.2372 120.297 49.2031 120.321 49.1735C120.346 49.1438 120.377 49.1193 120.411 49.1012C120.446 49.0831 120.484 49.0718 120.523 49.068C122.069 48.9726 123.599 49.4166 124.841 50.3208C124.913 50.3467 124.972 50.399 125.006 50.4665C125.039 50.534 125.045 50.6116 125.021 50.6829C124.997 50.7542 124.946 50.8138 124.878 50.849C124.81 50.8842 124.731 50.8924 124.657 50.8718Z" fill="#404B7C"/>
<path d="M122.269 51.6548C122.201 51.6551 122.136 51.6329 122.083 51.5918C122.03 51.5506 121.993 51.4931 121.978 51.4286C121.848 50.7826 121.832 50.1196 121.931 49.4683C121.936 49.4302 121.95 49.3936 121.97 49.3606C121.991 49.3276 122.017 49.2988 122.049 49.2759C122.081 49.253 122.117 49.2365 122.155 49.2272C122.193 49.2179 122.233 49.216 122.272 49.2217C122.311 49.2275 122.349 49.2406 122.382 49.2605C122.416 49.2803 122.446 49.3065 122.469 49.3374C122.493 49.3684 122.509 49.4036 122.519 49.441C122.529 49.4783 122.53 49.5172 122.525 49.5553C122.437 50.1331 122.449 50.7212 122.56 51.2952C122.569 51.3326 122.57 51.3712 122.563 51.409C122.557 51.4467 122.543 51.4828 122.522 51.5152C122.501 51.5475 122.473 51.5755 122.441 51.5975C122.409 51.6195 122.373 51.635 122.334 51.6432H122.269V51.6548Z" fill="#404B7C"/>
<path d="M124.045 57.072C122.97 57.072 122.132 55.7728 122.132 54.1082C122.128 53.5463 122.234 52.9889 122.447 52.4668C122.459 52.4281 122.48 52.3924 122.507 52.3618C122.534 52.3312 122.567 52.3064 122.604 52.2891C122.642 52.2718 122.683 52.2624 122.724 52.2614C122.765 52.2604 122.807 52.2678 122.845 52.2833C122.883 52.2987 122.918 52.3218 122.946 52.351C122.975 52.3803 122.997 52.415 123.011 52.453C123.025 52.4911 123.031 52.5316 123.028 52.5719C123.025 52.6122 123.013 52.6515 122.994 52.6872C122.811 53.1395 122.721 53.6221 122.726 54.1082C122.726 55.4016 123.32 56.492 124.045 56.492C124.77 56.492 125.364 55.4016 125.364 54.1082C125.364 52.8148 124.77 51.7244 124.045 51.7244C123.966 51.7244 123.891 51.6939 123.835 51.6395C123.779 51.5851 123.748 51.5113 123.748 51.4344C123.748 51.3575 123.779 51.2837 123.835 51.2293C123.891 51.175 123.966 51.1444 124.045 51.1444C125.12 51.1444 125.958 52.4436 125.958 54.1082C125.958 55.7728 125.12 57.072 124.045 57.072Z" fill="#F68D88"/>
<path d="M125.637 45.878C125.637 45.878 125.952 43.7204 127.639 43.964C127.604 43.8514 127.612 43.7303 127.662 43.6234C127.713 43.5166 127.801 43.4314 127.912 43.384C128.286 43.2564 128.714 44.3932 128.714 44.3932C127.596 44.6813 126.55 45.1863 125.637 45.878Z" fill="#404B7C"/>
<path d="M134.06 44.1613C134.06 44.1613 133.306 42.3052 132.367 43.1869C132.337 43.1036 132.283 43.0307 132.211 42.9771C132.139 42.9235 132.053 42.8916 131.963 42.8853C131.518 42.9491 131.797 44.0453 131.797 44.0453C132.544 43.8462 133.338 43.8869 134.06 44.1613Z" fill="#404B7C"/>
<path d="M128.713 48.3902C129.157 48.2629 129.386 47.7237 129.224 47.1859C129.062 46.648 128.571 46.3152 128.127 46.4425C127.684 46.5698 127.455 47.109 127.617 47.6468C127.779 48.1847 128.269 48.5175 128.713 48.3902Z" fill="#404B7C"/>
<path d="M128.557 47.2356C128.677 47.2013 128.745 47.0788 128.71 46.962C128.675 46.8452 128.55 46.7783 128.43 46.8126C128.31 46.8469 128.242 46.9694 128.277 47.0862C128.312 47.203 128.438 47.2699 128.557 47.2356Z" fill="white"/>
<path d="M133.458 47.0306C133.902 46.9033 134.13 46.3641 133.968 45.8262C133.807 45.2884 133.316 44.9556 132.872 45.0829C132.428 45.2102 132.2 45.7494 132.361 46.2872C132.523 46.8251 133.014 47.1579 133.458 47.0306Z" fill="#404B7C"/>
<path d="M133.301 45.8744C133.421 45.8401 133.489 45.7176 133.454 45.6008C133.419 45.484 133.294 45.4171 133.174 45.4514C133.054 45.4857 132.986 45.6082 133.021 45.725C133.056 45.8418 133.182 45.9087 133.301 45.8744Z" fill="white"/>
<path d="M131.672 50.0134C131.593 50.0134 131.518 49.9828 131.462 49.9284C131.406 49.8741 131.375 49.8003 131.375 49.7234C131.375 49.6465 131.406 49.5727 131.462 49.5183C131.518 49.4639 131.593 49.4334 131.672 49.4334C131.708 49.4334 132.581 49.387 132.628 48.8012C132.638 48.7712 132.639 48.7392 132.632 48.7086C132.625 48.6779 132.609 48.6498 132.587 48.6272C132.296 48.5282 131.98 48.5282 131.69 48.6272C131.615 48.647 131.535 48.6374 131.467 48.6006C131.4 48.5637 131.35 48.5025 131.327 48.43L130.733 46.5334C130.722 46.4953 130.719 46.4554 130.723 46.416C130.728 46.3766 130.74 46.3384 130.76 46.3037C130.779 46.269 130.805 46.2383 130.837 46.2135C130.869 46.1888 130.905 46.1703 130.944 46.1593C130.983 46.1482 131.024 46.1448 131.065 46.1492C131.105 46.1535 131.144 46.1656 131.18 46.1848C131.215 46.2039 131.246 46.2297 131.272 46.2606C131.297 46.2916 131.316 46.3271 131.327 46.3652L131.832 48.0066C132.027 47.9585 132.229 47.9491 132.427 47.979C132.625 48.0089 132.814 48.0775 132.985 48.1806C133.082 48.2622 133.157 48.3668 133.202 48.4846C133.247 48.6023 133.26 48.7293 133.24 48.8534C133.163 49.7234 132.207 50.0134 131.714 50.0134H131.672Z" fill="#404B7C"/>
<path d="M131.126 52.3915C130.326 52.381 129.543 52.1649 128.857 51.7651C128.82 51.7476 128.788 51.7232 128.762 51.6932C128.736 51.6632 128.716 51.6283 128.704 51.5906C128.692 51.553 128.688 51.5133 128.693 51.4741C128.697 51.4349 128.709 51.397 128.729 51.3627C128.749 51.3283 128.776 51.2983 128.808 51.2744C128.84 51.2505 128.877 51.2332 128.916 51.2236C128.955 51.2141 128.996 51.2124 129.036 51.2187C129.075 51.2251 129.114 51.2393 129.148 51.2605C131.215 52.4205 132.712 51.3997 132.712 51.3881C132.743 51.3619 132.779 51.3424 132.819 51.3308C132.858 51.3191 132.9 51.3156 132.941 51.3204C132.981 51.3253 133.021 51.3384 133.056 51.3589C133.092 51.3794 133.122 51.4068 133.146 51.4395C133.17 51.4722 133.187 51.5094 133.195 51.5487C133.204 51.5881 133.204 51.6287 133.195 51.668C133.187 51.7074 133.17 51.7446 133.146 51.7772C133.122 51.8099 133.092 51.8374 133.056 51.8579C132.48 52.2166 131.809 52.4021 131.126 52.3915Z" fill="#404B7C"/>
<path d="M94.3746 68.7706C101.592 68.7706 107.443 63.0578 107.443 56.0106C107.443 48.9635 101.592 43.2506 94.3746 43.2506C87.1574 43.2506 81.3066 48.9635 81.3066 56.0106C81.3066 63.0578 87.1574 68.7706 94.3746 68.7706Z" fill="#9AB3DA"/>
<path d="M95.0165 51.1676C96.3221 51.1676 97.3806 50.1341 97.3806 48.8592C97.3806 47.5843 96.3221 46.5508 95.0165 46.5508C93.7108 46.5508 92.6523 47.5843 92.6523 48.8592C92.6523 50.1341 93.7108 51.1676 95.0165 51.1676Z" fill="#F8F8F8"/>
<path d="M90.199 57.4663C90.1604 57.4792 90.1187 57.4807 90.0792 57.4707C90.0397 57.4606 90.0041 57.4394 89.9769 57.4097C89.9496 57.38 89.932 57.3432 89.926 57.3037C89.9201 57.2643 89.9262 57.224 89.9436 57.1879C90.6445 55.6451 94.5649 52.3391 97.3567 52.4493C98.61 52.5015 95.6163 60.6041 95.6341 61.7293C95.6341 62.5645 97.5468 61.8337 98.5447 61.3871C98.5871 61.3723 98.6332 61.3709 98.6765 61.3832C98.7197 61.3955 98.7579 61.4208 98.7856 61.4555C98.8132 61.4902 98.829 61.5326 98.8305 61.5766C98.832 61.6205 98.8193 61.6639 98.7942 61.7003C98.0517 62.8603 95.5925 65.2963 93.1333 65.4587C89.8366 65.6791 92.7888 56.5963 92.7888 56.5963L90.199 57.4663Z" fill="#F8F8F8"/>
<path d="M203.778 97.556C203.301 97.556 202.835 97.4179 202.438 97.1592C202.041 96.9004 201.732 96.5327 201.55 96.1024C201.367 95.6721 201.319 95.1986 201.413 94.7418C201.506 94.2851 201.735 93.8655 202.073 93.5361C202.41 93.2068 202.84 92.9825 203.307 92.8917C203.775 92.8008 204.26 92.8475 204.701 93.0257C205.141 93.2039 205.518 93.5057 205.783 93.893C206.048 94.2802 206.189 94.7355 206.189 95.2012C206.188 95.8253 205.933 96.4234 205.481 96.8646C205.029 97.3059 204.417 97.5545 203.778 97.556ZM203.778 93.4264C203.418 93.4264 203.067 93.5305 202.768 93.7255C202.469 93.9206 202.236 94.1978 202.099 94.5221C201.961 94.8464 201.925 95.2032 201.995 95.5475C202.065 95.8918 202.238 96.208 202.493 96.4562C202.747 96.7044 203.071 96.8735 203.423 96.9419C203.776 97.0104 204.141 96.9753 204.473 96.8409C204.806 96.7066 205.089 96.4791 205.289 96.1873C205.489 95.8954 205.595 95.5523 205.595 95.2012C205.596 94.9677 205.55 94.7363 205.459 94.5203C205.368 94.3043 205.234 94.1079 205.065 93.9425C204.896 93.7771 204.696 93.6458 204.475 93.5563C204.254 93.4667 204.017 93.4206 203.778 93.4206V93.4264Z" fill="#9AB3DA"/>
<path d="M189.813 33.495C189.336 33.495 188.869 33.3569 188.473 33.0981C188.076 32.8394 187.767 32.4716 187.584 32.0413C187.402 31.6111 187.354 31.1376 187.447 30.6808C187.54 30.224 187.77 29.8044 188.107 29.4751C188.445 29.1458 188.874 28.9215 189.342 28.8306C189.81 28.7398 190.295 28.7864 190.735 28.9646C191.176 29.1429 191.553 29.4447 191.818 29.8319C192.083 30.2192 192.224 30.6745 192.224 31.1402C192.223 31.7643 191.968 32.3623 191.516 32.8036C191.064 33.2449 190.452 33.4935 189.813 33.495ZM189.813 29.3654C189.453 29.3654 189.102 29.4695 188.803 29.6645C188.504 29.8595 188.271 30.1367 188.133 30.461C187.996 30.7853 187.96 31.1422 188.03 31.4864C188.1 31.8307 188.273 32.147 188.527 32.3952C188.781 32.6434 189.105 32.8124 189.458 32.8809C189.811 32.9494 190.176 32.9142 190.508 32.7799C190.84 32.6456 191.124 32.4181 191.324 32.1262C191.524 31.8344 191.63 31.4912 191.63 31.1402C191.631 30.9066 191.585 30.6752 191.494 30.4592C191.403 30.2432 191.269 30.0469 191.1 29.8815C190.931 29.7161 190.73 29.5848 190.509 29.4953C190.289 29.4057 190.052 29.3596 189.813 29.3596V29.3654Z" fill="#9AB3DA"/>
<path d="M223.284 62.4371C222.927 62.4313 222.58 62.3227 222.286 62.1249C221.992 61.9271 221.765 61.6489 221.632 61.3252C221.499 61.0015 221.468 60.6467 221.541 60.3055C221.614 59.9643 221.789 59.6518 222.044 59.4073C222.298 59.1628 222.621 58.9972 222.972 58.9312C223.322 58.8653 223.685 58.902 224.014 59.0367C224.343 59.1714 224.625 59.3981 224.822 59.6883C225.02 59.9786 225.126 60.3194 225.126 60.6681C225.125 60.9026 225.077 61.1347 224.984 61.3509C224.89 61.567 224.754 61.763 224.583 61.9275C224.412 62.092 224.209 62.2218 223.986 62.3092C223.763 62.3967 223.525 62.4401 223.284 62.4371ZM223.284 59.4733C223.045 59.479 222.813 59.5534 222.617 59.6872C222.421 59.821 222.269 60.0083 222.181 60.2256C222.094 60.443 222.073 60.6808 222.123 60.9094C222.173 61.1379 222.291 61.3471 222.461 61.5107C222.632 61.6743 222.849 61.7852 223.084 61.8294C223.319 61.8736 223.562 61.8493 223.783 61.7594C224.004 61.6695 224.192 61.518 224.326 61.3239C224.459 61.1298 224.531 60.9017 224.532 60.6681C224.531 60.5097 224.498 60.353 224.435 60.2072C224.371 60.0614 224.279 59.9293 224.163 59.8187C224.047 59.708 223.909 59.621 223.759 59.5627C223.608 59.5044 223.447 59.476 223.284 59.4791V59.4733Z" fill="#9AB3DA"/>
<path d="M226.183 41.6556C226.104 41.6556 226.029 41.625 225.973 41.5706C225.918 41.5162 225.886 41.4425 225.886 41.3656V38.0015C225.886 37.9246 225.918 37.8509 225.973 37.7965C226.029 37.7421 226.104 37.7115 226.183 37.7115C226.262 37.7115 226.338 37.7421 226.393 37.7965C226.449 37.8509 226.48 37.9246 226.48 38.0015V41.3656C226.48 41.4425 226.449 41.5162 226.393 41.5706C226.338 41.625 226.262 41.6556 226.183 41.6556Z" fill="#9AB3DA"/>
<path d="M229.771 42.9722H227.193C227.114 42.9722 227.039 42.9417 226.983 42.8873C226.927 42.8329 226.896 42.7591 226.896 42.6822C226.896 42.6053 226.927 42.5315 226.983 42.4772C227.039 42.4228 227.114 42.3922 227.193 42.3922H229.771C229.85 42.3922 229.925 42.4228 229.981 42.4772C230.037 42.5315 230.068 42.6053 230.068 42.6822C230.068 42.7591 230.037 42.8329 229.981 42.8873C229.925 42.9417 229.85 42.9722 229.771 42.9722Z" fill="#9AB3DA"/>
<path d="M226.183 47.6527C226.104 47.6527 226.029 47.6222 225.973 47.5678C225.918 47.5134 225.886 47.4397 225.886 47.3627V43.9987C225.886 43.9218 225.918 43.8481 225.973 43.7937C226.029 43.7393 226.104 43.7087 226.183 43.7087C226.262 43.7087 226.338 43.7393 226.393 43.7937C226.449 43.8481 226.48 43.9218 226.48 43.9987V47.3627C226.48 47.4397 226.449 47.5134 226.393 47.5678C226.338 47.6222 226.262 47.6527 226.183 47.6527Z" fill="#9AB3DA"/>
<path d="M225.173 42.9722H222.595C222.517 42.9722 222.441 42.9417 222.385 42.8873C222.33 42.8329 222.298 42.7591 222.298 42.6822C222.298 42.6053 222.33 42.5315 222.385 42.4772C222.441 42.4228 222.517 42.3922 222.595 42.3922H225.173C225.252 42.3922 225.328 42.4228 225.383 42.4772C225.439 42.5315 225.47 42.6053 225.47 42.6822C225.47 42.7591 225.439 42.8329 225.383 42.8873C225.328 42.9417 225.252 42.9722 225.173 42.9722Z" fill="#9AB3DA"/>
<path d="M216.115 84.9293C216.036 84.9293 215.961 84.8988 215.905 84.8444C215.849 84.79 215.818 84.7162 215.818 84.6393V81.2754C215.818 81.1984 215.849 81.1247 215.905 81.0703C215.961 81.0159 216.036 80.9854 216.115 80.9854C216.194 80.9854 216.269 81.0159 216.325 81.0703C216.381 81.1247 216.412 81.1984 216.412 81.2754V84.6393C216.412 84.7162 216.381 84.79 216.325 84.8444C216.269 84.8988 216.194 84.9293 216.115 84.9293Z" fill="#9AB3DA"/>
<path d="M219.703 86.246H217.125C217.046 86.246 216.97 86.2155 216.915 86.1611C216.859 86.1067 216.828 86.0329 216.828 85.956C216.828 85.8791 216.859 85.8053 216.915 85.751C216.97 85.6966 217.046 85.666 217.125 85.666H219.703C219.781 85.666 219.857 85.6966 219.913 85.751C219.968 85.8053 220 85.8791 220 85.956C220 86.0329 219.968 86.1067 219.913 86.1611C219.857 86.2155 219.781 86.246 219.703 86.246Z" fill="#9AB3DA"/>
<path d="M216.115 90.9265C216.036 90.9265 215.961 90.896 215.905 90.8416C215.849 90.7872 215.818 90.7135 215.818 90.6365V87.2725C215.818 87.1956 215.849 87.1219 215.905 87.0675C215.961 87.0131 216.036 86.9825 216.115 86.9825C216.194 86.9825 216.269 87.0131 216.325 87.0675C216.381 87.1219 216.412 87.1956 216.412 87.2725V90.6365C216.412 90.7135 216.381 90.7872 216.325 90.8416C216.269 90.896 216.194 90.9265 216.115 90.9265Z" fill="#9AB3DA"/>
<path d="M215.105 86.246H212.527C212.449 86.246 212.373 86.2155 212.317 86.1611C212.262 86.1067 212.23 86.0329 212.23 85.956C212.23 85.8791 212.262 85.8053 212.317 85.751C212.373 85.6966 212.449 85.666 212.527 85.666H215.105C215.184 85.666 215.26 85.6966 215.315 85.751C215.371 85.8053 215.402 85.8791 215.402 85.956C215.402 86.0329 215.371 86.1067 215.315 86.1611C215.26 86.2155 215.184 86.246 215.105 86.246Z" fill="#9AB3DA"/>
<path d="M173.305 57.739C173.227 57.739 173.151 57.7085 173.095 57.6541C173.04 57.5997 173.008 57.526 173.008 57.449V54.085C173.008 54.0081 173.04 53.9344 173.095 53.88C173.151 53.8256 173.227 53.795 173.305 53.795C173.384 53.795 173.46 53.8256 173.515 53.88C173.571 53.9344 173.602 54.0081 173.602 54.085V57.449C173.602 57.526 173.571 57.5997 173.515 57.6541C173.46 57.7085 173.384 57.739 173.305 57.739Z" fill="#9AB3DA"/>
<path d="M176.893 59.0556H174.315C174.236 59.0556 174.161 59.025 174.105 58.9706C174.049 58.9163 174.018 58.8425 174.018 58.7656C174.018 58.6887 174.049 58.6149 174.105 58.5605C174.161 58.5061 174.236 58.4756 174.315 58.4756H176.893C176.972 58.4756 177.047 58.5061 177.103 58.5605C177.159 58.6149 177.19 58.6887 177.19 58.7656C177.19 58.8425 177.159 58.9163 177.103 58.9706C177.047 59.025 176.972 59.0556 176.893 59.0556Z" fill="#9AB3DA"/>
<path d="M173.305 63.7362C173.227 63.7362 173.151 63.7057 173.095 63.6513C173.04 63.5969 173.008 63.5232 173.008 63.4462V60.0822C173.008 60.0053 173.04 59.9316 173.095 59.8772C173.151 59.8228 173.227 59.7922 173.305 59.7922C173.384 59.7922 173.46 59.8228 173.515 59.8772C173.571 59.9316 173.602 60.0053 173.602 60.0822V63.4462C173.602 63.5232 173.571 63.5969 173.515 63.6513C173.46 63.7057 173.384 63.7362 173.305 63.7362Z" fill="#9AB3DA"/>
<path d="M172.296 59.0556H169.718C169.639 59.0556 169.564 59.025 169.508 58.9706C169.452 58.9163 169.421 58.8425 169.421 58.7656C169.421 58.6887 169.452 58.6149 169.508 58.5605C169.564 58.5061 169.639 58.4756 169.718 58.4756H172.296C172.375 58.4756 172.45 58.5061 172.506 58.5605C172.562 58.6149 172.593 58.6887 172.593 58.7656C172.593 58.8425 172.562 58.9163 172.506 58.9706C172.45 59.025 172.375 59.0556 172.296 59.0556Z" fill="#9AB3DA"/>
<path d="M213.864 39.3936H190.739C189.863 39.3936 189.153 40.0869 189.153 40.9422V71.079C189.153 71.9342 189.863 72.6276 190.739 72.6276H213.864C214.74 72.6276 215.45 71.9342 215.45 71.079V40.9422C215.45 40.0869 214.74 39.3936 213.864 39.3936Z" fill="#9AB3DA"/>
<path d="M211.179 42.0153H188.054C187.178 42.0153 186.468 42.7086 186.468 43.5639V73.7007C186.468 74.5559 187.178 75.2493 188.054 75.2493H211.179C212.055 75.2493 212.765 74.5559 212.765 73.7007V43.5639C212.765 42.7086 212.055 42.0153 211.179 42.0153Z" fill="#0D1D54"/>
<path d="M208.357 44.8224H185.233C184.357 44.8224 183.647 45.5157 183.647 46.371V76.5078C183.647 77.3631 184.357 78.0564 185.233 78.0564H208.357C209.233 78.0564 209.943 77.3631 209.943 76.5078V46.371C209.943 45.5157 209.233 44.8224 208.357 44.8224Z" fill="#9AB3DA"/>
<path d="M206.587 51.9912H187.003C186.485 51.9912 186.064 52.4015 186.064 52.9076V53.128C186.064 53.6341 186.485 54.0444 187.003 54.0444H206.587C207.105 54.0444 207.526 53.6341 207.526 53.128V52.9076C207.526 52.4015 207.105 51.9912 206.587 51.9912Z" fill="#F8F8F8"/>
<path d="M206.587 57.6056H187.003C186.485 57.6056 186.064 58.0159 186.064 58.522V58.7424C186.064 59.2485 186.485 59.6588 187.003 59.6588H206.587C207.105 59.6588 207.526 59.2485 207.526 58.7424V58.522C207.526 58.0159 207.105 57.6056 206.587 57.6056Z" fill="#F8F8F8"/>
<path d="M206.587 63.2258H187.003C186.485 63.2258 186.064 63.6361 186.064 64.1422V64.3626C186.064 64.8687 186.485 65.279 187.003 65.279H206.587C207.105 65.279 207.526 64.8687 207.526 64.3626V64.1422C207.526 63.6361 207.105 63.2258 206.587 63.2258Z" fill="#F8F8F8"/>
<path d="M195.022 68.8402H187.003C186.485 68.8402 186.064 69.2505 186.064 69.7566V69.977C186.064 70.4831 186.485 70.8934 187.003 70.8934H195.022C195.54 70.8934 195.961 70.4831 195.961 69.977V69.7566C195.961 69.2505 195.54 68.8402 195.022 68.8402Z" fill="#F8F8F8"/>
</svg>
