<svg width="335" height="250" viewBox="0 0 335 250" fill="none" xmlns="http://www.w3.org/2000/svg">
<path d="M335 219.696H0V219.864H335V219.696Z" fill="#EBEBEB"/>
<path d="M297.406 226.084H275.216V226.252H297.406V226.084Z" fill="#EBEBEB"/>
<path d="M121.491 228.359H88.085V228.527H121.491V228.359Z" fill="#EBEBEB"/>
<path d="M274.546 232.318H254.761V232.486H274.546V232.318Z" fill="#EBEBEB"/>
<path d="M49.6202 231.191H35.1482V231.359H49.6202V231.191Z" fill="#EBEBEB"/>
<path d="M81.2912 231.191H55.5833V231.359H81.2912V231.191Z" fill="#EBEBEB"/>
<path d="M221.917 224.266H159.152V224.434H221.917V224.266Z" fill="#EBEBEB"/>
<path d="M158.79 189.768H29.4196C28.4061 189.766 27.4347 189.362 26.7187 188.643C26.0027 187.925 25.6006 186.952 25.6006 185.936V3.79805C25.6094 2.78883 26.0154 1.82385 26.7305 1.11272C27.4456 0.401585 28.4119 0.00172884 29.4196 0H158.79C159.805 0 160.778 0.403685 161.495 1.12225C162.213 1.84081 162.616 2.81539 162.616 3.8316V185.936C162.616 186.953 162.213 187.927 161.495 188.646C160.778 189.364 159.805 189.768 158.79 189.768ZM29.4196 0.134207C28.4505 0.135985 27.5218 0.522778 26.8372 1.20969C26.1526 1.8966 25.7681 2.8275 25.7681 3.79805V185.936C25.7681 186.907 26.1526 187.838 26.8372 188.525C27.5218 189.212 28.4505 189.599 29.4196 189.6H158.79C159.76 189.599 160.689 189.212 161.375 188.525C162.06 187.839 162.446 186.908 162.448 185.936V3.79805C162.446 2.82688 162.06 1.896 161.375 1.20928C160.689 0.52256 159.76 0.135981 158.79 0.134207H29.4196Z" fill="#EBEBEB"/>
<path d="M303.718 189.768H174.341C173.326 189.766 172.354 189.362 171.637 188.644C170.92 187.926 170.517 186.952 170.515 185.936V3.79805C170.525 2.78822 170.933 1.82325 171.649 1.1123C172.365 0.401351 173.332 0.00170999 174.341 0H303.718C304.724 0.00349239 305.689 0.404129 306.402 1.11507C307.116 1.82602 307.521 2.78999 307.53 3.79805V185.936C307.53 186.95 307.129 187.923 306.414 188.641C305.7 189.359 304.73 189.765 303.718 189.768ZM174.341 0.134207C173.371 0.135981 172.441 0.52256 171.756 1.20928C171.07 1.896 170.684 2.82688 170.682 3.79805V185.936C170.684 186.908 171.07 187.839 171.756 188.525C172.441 189.212 173.371 189.599 174.341 189.6H303.718C304.687 189.599 305.617 189.212 306.302 188.525C306.988 187.839 307.374 186.908 307.376 185.936V3.79805C307.374 2.82688 306.988 1.896 306.302 1.20928C305.617 0.52256 304.687 0.135981 303.718 0.134207H174.341Z" fill="#EBEBEB"/>
<path d="M72.8357 107.13L254.546 107.13V18.2454L72.8357 18.2454V107.13Z" fill="#E6E6E6"/>
<path d="M69.4321 107.13L252.958 107.13V18.2454L69.4321 18.2454V107.13Z" fill="#F0F0F0"/>
<path d="M72.8357 113.465L254.546 113.465V107.13L72.8357 107.13V113.465Z" fill="#E6E6E6"/>
<path d="M63.7573 113.465L247.284 113.465V107.13L63.7573 107.13V113.465Z" fill="#F0F0F0"/>
<path d="M248.195 102.366V23.0231L74.1958 23.0231V102.366L248.195 102.366Z" fill="#FAFAFA"/>
<path d="M122.054 102.366L114.429 23.0231H101.23L108.855 102.366H122.054Z" fill="white"/>
<path d="M223.659 102.366L216.028 23.0231H202.829L210.46 102.366H223.659Z" fill="white"/>
<path d="M245.99 75.4711C246.087 75.4693 246.179 75.4296 246.247 75.3606C246.314 75.2916 246.352 75.1987 246.352 75.102V26.1166C246.359 26.0644 246.355 26.0113 246.34 25.9609C246.325 25.9104 246.299 25.8638 246.265 25.8242C246.23 25.7845 246.187 25.7527 246.14 25.7309C246.092 25.7091 246.04 25.6979 245.987 25.6979C245.935 25.6979 245.883 25.7091 245.835 25.7309C245.787 25.7527 245.744 25.7845 245.71 25.8242C245.675 25.8638 245.649 25.9104 245.634 25.9609C245.619 26.0113 245.615 26.0644 245.622 26.1166V75.102C245.622 75.1505 245.632 75.1985 245.65 75.2432C245.669 75.288 245.696 75.3287 245.73 75.363C245.764 75.3972 245.805 75.4244 245.849 75.443C245.894 75.4615 245.942 75.4711 245.99 75.4711Z" fill="#F0F0F0"/>
<path d="M106.021 102.366L98.3895 23.0231H93.2439L100.875 102.366H106.021Z" fill="white"/>
<path d="M74.7988 102.366V23.0231H74.1949V102.366H74.7988Z" fill="#E6E6E6"/>
<path opacity="0.5" d="M68.3064 31.6727H250.017L250.453 24.8752H68.7419L68.3064 31.6727Z" fill="#E0E0E0"/>
<path opacity="0.5" d="M68.3064 42.8454H250.017L250.453 36.0479H68.7419L68.3064 42.8454Z" fill="#E0E0E0"/>
<path opacity="0.5" d="M68.3064 54.0182H250.017L250.453 47.2206H68.7419L68.3064 54.0182Z" fill="#E0E0E0"/>
<path opacity="0.5" d="M68.3064 65.1908H250.017L250.453 58.3933H68.7419L68.3064 65.1908Z" fill="#E0E0E0"/>
<path opacity="0.5" d="M68.3064 76.3635H250.017L250.453 69.566H68.7419L68.3064 76.3635Z" fill="#E0E0E0"/>
<path opacity="0.5" d="M68.3064 87.5362H250.017L250.453 80.7387H68.7419L68.3064 87.5362Z" fill="#E0E0E0"/>
<path d="M177.309 219.696H188.739V143.172H177.309V219.696Z" fill="#E6E6E6"/>
<path d="M180.31 219.696H177.309V209.275H183.466L180.31 219.696Z" fill="#F0F0F0"/>
<path d="M282.72 219.696H294.15V143.172H282.72V219.696Z" fill="#E6E6E6"/>
<path d="M177.302 213.301H285.333V143.172H177.302V213.301Z" fill="#F0F0F0"/>
<path d="M179.634 165.504H283.001V146.272H179.634V165.504Z" fill="#E6E6E6"/>
<path d="M197.65 152.251H262.975C265.909 152.251 268.71 149.882 270.727 145.688H189.898C191.915 149.882 194.715 152.251 197.65 152.251Z" fill="#F0F0F0"/>
<path d="M282.331 219.696H285.34V209.275H279.182L282.331 219.696Z" fill="#F0F0F0"/>
<path d="M179.634 187.849H283.001V168.617H179.634V187.849Z" fill="#E6E6E6"/>
<path d="M197.65 174.596H262.975C265.909 174.596 268.71 172.221 270.727 168.033H189.898C191.915 172.221 194.715 174.596 197.65 174.596Z" fill="#F0F0F0"/>
<path d="M179.634 210.194H283.001V190.963H179.634V210.194Z" fill="#E6E6E6"/>
<path d="M197.65 196.935H262.975C265.909 196.935 268.71 194.559 270.727 190.372H189.898C191.915 194.559 194.715 196.935 197.65 196.935Z" fill="#F0F0F0"/>
<path d="M102.048 119.558H88.7952C87.1153 119.558 85.7534 120.922 85.7534 122.604V127.704C85.7534 129.387 87.1153 130.751 88.7952 130.751H102.048C103.728 130.751 105.09 129.387 105.09 127.704V122.604C105.09 120.922 103.728 119.558 102.048 119.558Z" fill="#F5F5F5"/>
<path d="M126.241 119.558H112.989C111.309 119.558 109.947 120.922 109.947 122.604V127.704C109.947 129.387 111.309 130.751 112.989 130.751H126.241C127.921 130.751 129.283 129.387 129.283 127.704V122.604C129.283 120.922 127.921 119.558 126.241 119.558Z" fill="#F5F5F5"/>
<path d="M55.2617 117.317C55.2617 117.317 55.724 130.737 73.3986 130.737C91.0732 130.737 91.5288 117.317 91.5288 117.317H55.2617Z" fill="#F0F0F0"/>
<path d="M131.273 215.321H150.73V134.978H131.273V215.321Z" fill="#F0F0F0"/>
<path d="M51.054 219.696H146.998V215.321H51.054V219.696Z" fill="#F0F0F0"/>
<path d="M131.273 134.972H47.3154V215.314H131.273V134.972Z" fill="#F5F5F5"/>
<path d="M123.628 165.886H54.9668V184.407H123.628V165.886Z" fill="#F0F0F0"/>
<path d="M123.628 188.54H54.9668V207.061H123.628V188.54Z" fill="#F0F0F0"/>
<path d="M81.2374 168.369H97.3509C97.7608 168.367 98.1535 168.203 98.4433 167.913C98.7332 167.623 98.8968 167.229 98.8986 166.819C98.8986 166.407 98.7357 166.012 98.4457 165.72C98.1556 165.429 97.762 165.264 97.3509 165.262H81.2374C80.8263 165.264 80.4327 165.429 80.1426 165.72C79.8525 166.012 79.6897 166.407 79.6897 166.819C79.6915 167.229 79.8551 167.623 80.145 167.913C80.4348 168.203 80.8275 168.367 81.2374 168.369Z" fill="#F5F5F5"/>
<path d="M123.628 143.239H54.9668V161.759H123.628V143.239Z" fill="#F0F0F0"/>
<path d="M81.2374 145.722H97.3509C97.762 145.72 98.1556 145.555 98.4457 145.263C98.7357 144.971 98.8986 144.576 98.8986 144.165C98.8968 143.754 98.7332 143.361 98.4433 143.071C98.1535 142.78 97.7608 142.616 97.3509 142.615H81.2374C80.8275 142.616 80.4348 142.78 80.145 143.071C79.8551 143.361 79.6915 143.754 79.6897 144.165C79.6897 144.576 79.8525 144.971 80.1426 145.263C80.4327 145.555 80.8263 145.72 81.2374 145.722Z" fill="#F5F5F5"/>
<path d="M81.2375 191.016H97.351C98.2058 191.016 98.8987 190.322 98.8987 189.466V189.459C98.8987 188.603 98.2058 187.909 97.351 187.909H81.2375C80.3827 187.909 79.6898 188.603 79.6898 189.459V189.466C79.6898 190.322 80.3827 191.016 81.2375 191.016Z" fill="#F5F5F5"/>
<path d="M44.7226 134.972H131.273V130.744H44.7226V134.972Z" fill="#F0F0F0"/>
<path d="M153.45 130.751H131.273V134.978H153.45V130.751Z" fill="#E6E6E6"/>
<path d="M261.139 86.0197L256.335 78.7323C256.503 120.913 257.213 123.343 257.193 130.603H261.046C261.582 95.2867 263.069 95.0786 261.139 86.0197Z" fill="#E0E0E0"/>
<path d="M259.29 143.165C270.338 143.165 279.658 138.676 281.923 132.603C282.502 130.941 283.295 129.362 284.281 127.906L284.455 127.657H234.111L234.286 127.906C235.276 129.361 236.072 130.94 236.651 132.603C238.915 138.676 248.235 143.165 259.29 143.165Z" fill="#FAFAFA"/>
<path d="M234.011 129.16H284.556C285.238 129.159 285.901 128.931 286.44 128.512C286.98 128.093 287.365 127.507 287.537 126.845C287.653 126.39 287.664 125.914 287.569 125.453C287.474 124.993 287.275 124.561 286.987 124.189C286.699 123.818 286.331 123.517 285.909 123.31C285.488 123.102 285.025 122.994 284.556 122.994H234.011C233.541 122.993 233.077 123.1 232.655 123.307C232.233 123.514 231.864 123.815 231.576 124.187C231.288 124.558 231.089 124.991 230.994 125.452C230.9 125.913 230.912 126.39 231.029 126.845C231.199 127.508 231.584 128.095 232.124 128.515C232.664 128.934 233.328 129.161 234.011 129.16Z" fill="#F0F0F0"/>
<path d="M259.685 80.1482C258.727 68.7406 247.009 67.6133 225.086 62.2383C235.84 93.2736 263.31 123.114 259.685 80.1482Z" fill="#E0E0E0"/>
<path d="M256.51 74.1558C254.888 65.0969 256.583 55.4944 281.97 56.4339C275.611 81.3762 264.054 116.216 256.51 74.1558Z" fill="#E0E0E0"/>
<path d="M257.662 96.2731C258.432 85.8385 266.459 73.458 292.736 82.3626C281.052 102.614 255.799 121.457 257.662 96.2731Z" fill="#E0E0E0"/>
<path d="M167.5 250C239.245 250 297.406 246.599 297.406 242.404C297.406 238.209 239.245 234.808 167.5 234.808C95.7548 234.808 37.5938 238.209 37.5938 242.404C37.5938 246.599 95.7548 250 167.5 250Z" fill="#F5F5F5"/>
<path d="M90.2826 148.459H172.498V144.017H90.2826V148.459Z" fill="#F44242"/>
<path opacity="0.5" d="M90.2826 148.459H172.498V144.017H90.2826V148.459Z" fill="white"/>
<path d="M90.2826 144.017H52.6353V148.459H90.2826V144.017Z" fill="#F44242"/>
<path opacity="0.5" d="M90.2826 144.017H52.6353V148.459H90.2826V144.017Z" fill="white"/>
<path opacity="0.2" d="M90.2826 144.017H52.6353V148.459H90.2826V144.017Z" fill="#1B1C1E"/>
<path d="M55.1813 153.197H169.966L170.951 148.459H54.1897L55.1813 153.197Z" fill="#F44242"/>
<path opacity="0.6" d="M55.1813 153.197H169.966L170.951 148.459H54.1897L55.1813 153.197Z" fill="#1B1C1E"/>
<path d="M158.046 153.197V239.914H155.453L152.184 153.197H158.046Z" fill="#F44242"/>
<path opacity="0.5" d="M158.046 153.197V239.914H155.453L152.184 153.197H158.046Z" fill="white"/>
<path d="M127.401 153.197V239.914H124.808L121.538 153.197H127.401Z" fill="#F44242"/>
<path opacity="0.5" d="M127.401 153.197V239.914H124.808L121.538 153.197H127.401Z" fill="white"/>
<path d="M60.9634 153.197V239.914H63.5563L66.8259 153.197H60.9634Z" fill="#F44242"/>
<path opacity="0.5" d="M60.9634 153.197V239.914H63.5563L66.8259 153.197H60.9634Z" fill="white"/>
<path d="M91.6091 153.197V239.914H94.202L97.4716 153.197H91.6091Z" fill="#F44242"/>
<path opacity="0.5" d="M91.6091 153.197V239.914H94.202L97.4716 153.197H91.6091Z" fill="white"/>
<path d="M266.198 88.2677C267.665 91.133 269.012 93.9916 270.305 96.9173C271.598 99.843 272.797 102.802 273.903 105.849C274.164 106.627 274.445 107.379 274.687 108.177L274.874 108.768L274.975 109.063C274.975 109.164 275.075 109.412 275.115 109.58C275.261 110.24 275.311 110.918 275.263 111.593C275.165 112.675 274.896 113.735 274.465 114.733C274.113 115.586 273.689 116.407 273.199 117.189C271.382 120.025 269.148 122.57 266.573 124.738L264.101 122.47C265.761 120.018 267.219 117.435 268.462 114.747C268.725 114.142 268.949 113.521 269.132 112.888C269.275 112.414 269.336 111.919 269.313 111.425C269.314 111.32 269.289 111.216 269.239 111.123C269.239 111.123 269.239 111.157 269.206 111.076L269.105 110.814L268.898 110.291C268.63 109.62 268.315 108.895 268.02 108.191C266.814 105.379 265.508 102.567 264.174 99.7557L260.154 91.3343L266.198 88.2677Z" fill="#FF8B7B"/>
<path d="M264.838 121.658L261.802 122.96L264.824 127.154C264.824 127.154 267.022 125.919 267.296 123.765L264.838 121.658Z" fill="#FF8B7B"/>
<path d="M257.695 125.054L261.039 128.194L264.824 127.154L261.802 122.96L257.695 125.054Z" fill="#FF8B7B"/>
<path d="M245.267 67.2308C245.193 67.5864 244.952 67.8347 244.718 67.7877C244.483 67.7408 244.363 67.412 244.43 67.063C244.497 66.7141 244.751 66.4591 244.979 66.5061C245.207 66.553 245.341 66.8751 245.267 67.2308Z" fill="#263238"/>
<path d="M244.985 67.8414C244.343 68.8374 243.568 69.7405 242.681 70.5255C242.885 70.7495 243.137 70.9256 243.417 71.0416C243.697 71.1575 243.999 71.2104 244.302 71.1966L244.985 67.8414Z" fill="#ED847E"/>
<path d="M246.962 65.5331C246.932 65.5321 246.902 65.5251 246.874 65.5124C246.847 65.4997 246.822 65.4817 246.801 65.4592C246.627 65.2602 246.408 65.105 246.162 65.006C245.917 64.9069 245.651 64.8668 245.388 64.8889C245.36 64.8937 245.332 64.8931 245.305 64.8872C245.278 64.8812 245.253 64.8699 245.23 64.854C245.207 64.8381 245.188 64.8179 245.173 64.7946C245.158 64.7712 245.148 64.7451 245.143 64.7178C245.138 64.6904 245.139 64.6624 245.145 64.6353C245.151 64.6082 245.162 64.5826 245.178 64.5599C245.194 64.5371 245.214 64.5177 245.237 64.5028C245.261 64.4879 245.287 64.4777 245.314 64.4728C245.646 64.4326 245.983 64.4725 246.296 64.5893C246.61 64.706 246.891 64.8962 247.116 65.1439C247.143 65.1745 247.16 65.212 247.166 65.2521C247.173 65.2922 247.167 65.3332 247.151 65.3704C247.135 65.4076 247.109 65.4395 247.075 65.4623C247.042 65.4852 247.003 65.4981 246.962 65.4995V65.5331Z" fill="#263238"/>
<path d="M255.324 72.2031C254.654 75.4778 254.044 81.4701 256.329 83.6576C256.329 83.6576 255.438 86.9726 249.367 86.9726C242.667 86.9726 246.178 83.6576 246.178 83.6576C249.816 82.7853 249.722 80.0743 249.093 77.5311L255.324 72.2031Z" fill="#FF8B7B"/>
<path d="M257.896 84.6978C258.385 83.651 258.935 82.4498 257.709 82.1277C256.369 81.7721 249.032 81.6177 246.54 82.4766C244.047 83.3356 244.845 85.3889 244.845 85.3889L257.896 84.6978Z" fill="#1155CC"/>
<path d="M244.449 237.546C243.88 237.546 243.324 237.465 243.109 237.203C243.063 237.135 243.038 237.055 243.038 236.972C243.038 236.889 243.063 236.809 243.109 236.74C243.146 236.679 243.195 236.625 243.252 236.583C243.31 236.54 243.375 236.509 243.444 236.492C244.188 236.291 245.749 237.163 245.81 237.224C245.829 237.233 245.844 237.249 245.854 237.268C245.864 237.288 245.867 237.31 245.863 237.331C245.86 237.352 245.85 237.371 245.836 237.387C245.822 237.402 245.803 237.413 245.783 237.418C245.343 237.497 244.897 237.54 244.449 237.546ZM243.746 236.673C243.677 236.662 243.607 236.662 243.538 236.673C243.495 236.682 243.454 236.699 243.418 236.725C243.383 236.75 243.353 236.783 243.331 236.821C243.257 236.955 243.284 237.016 243.331 237.056C243.538 237.344 244.671 237.351 245.495 237.23C244.951 236.944 244.357 236.764 243.746 236.7V236.673Z" fill="#1155CC"/>
<path d="M245.803 237.445H245.756C245.22 237.203 244.148 236.23 244.228 235.727C244.228 235.606 244.336 235.459 244.624 235.432C244.729 235.421 244.836 235.431 244.937 235.463C245.038 235.494 245.132 235.545 245.213 235.613C245.614 236.102 245.849 236.706 245.883 237.338C245.886 237.355 245.883 237.374 245.876 237.39C245.869 237.407 245.858 237.421 245.843 237.432L245.803 237.445ZM244.711 235.633H244.644C244.456 235.633 244.443 235.727 244.443 235.754C244.389 236.056 245.113 236.821 245.669 237.15C245.615 236.64 245.409 236.159 245.079 235.767C244.975 235.682 244.845 235.635 244.711 235.633Z" fill="#1155CC"/>
<path d="M250.714 237.338H246.245L245.803 226.984H250.265L250.714 237.338Z" fill="#FF8B7B"/>
<path d="M282.901 232.406L278.459 232.889L275.109 222.83L279.551 222.347L282.901 232.406Z" fill="#FF8B7B"/>
<path d="M276.429 233.902C275.873 234.05 275.316 234.11 275.089 233.902C275.026 233.848 274.982 233.775 274.963 233.694C274.943 233.614 274.95 233.529 274.981 233.452C275.002 233.383 275.036 233.319 275.082 233.263C275.128 233.208 275.185 233.163 275.249 233.13C275.919 232.748 277.648 233.224 277.722 233.244C277.743 233.251 277.761 233.263 277.776 233.279C277.79 233.296 277.799 233.317 277.802 233.338C277.803 233.36 277.798 233.382 277.788 233.401C277.777 233.42 277.761 233.435 277.742 233.446C277.319 233.639 276.88 233.792 276.429 233.902ZM275.531 233.231C275.464 233.249 275.399 233.274 275.337 233.305C275.298 233.325 275.264 233.352 275.236 233.386C275.209 233.419 275.188 233.458 275.176 233.499C275.136 233.647 275.176 233.701 275.209 233.734C275.484 233.962 276.583 233.687 277.353 233.372C276.76 233.209 276.141 233.163 275.531 233.238V233.231Z" fill="#1155CC"/>
<path d="M277.708 233.452C277.708 233.452 277.675 233.452 277.661 233.452C277.079 233.352 275.806 232.681 275.765 232.171C275.765 232.05 275.799 231.882 276.074 231.781C276.17 231.74 276.274 231.719 276.378 231.719C276.483 231.719 276.587 231.74 276.683 231.781C277.353 232.097 277.762 233.231 277.782 233.278C277.792 233.294 277.798 233.313 277.798 233.332C277.798 233.351 277.792 233.369 277.782 233.385L277.708 233.452ZM276.208 231.963H276.141C275.966 232.03 275.973 232.104 275.973 232.13C275.973 232.432 276.891 232.989 277.507 233.177C277.335 232.696 277.016 232.281 276.596 231.989C276.475 231.932 276.336 231.922 276.208 231.963Z" fill="#1155CC"/>
<path d="M278.204 232.473L283.021 231.07C283.106 231.044 283.198 231.049 283.28 231.083C283.361 231.118 283.429 231.179 283.47 231.258L285.42 234.861C285.464 234.949 285.489 235.046 285.492 235.144C285.495 235.242 285.476 235.34 285.437 235.43C285.398 235.521 285.34 235.601 285.266 235.666C285.192 235.732 285.105 235.78 285.011 235.808C283.323 236.271 282.479 236.412 280.361 237.022C279.055 237.405 276.408 238.324 274.606 238.847C272.804 239.371 272.053 237.653 272.744 237.277C275.839 235.593 276.797 234.231 277.574 232.976C277.712 232.734 277.938 232.554 278.204 232.473Z" fill="#263238"/>
<path d="M246.272 236.821H251.149C251.239 236.821 251.326 236.851 251.395 236.907C251.465 236.963 251.513 237.042 251.531 237.13L252.416 241.102C252.435 241.2 252.432 241.301 252.407 241.398C252.381 241.495 252.335 241.585 252.271 241.661C252.207 241.738 252.126 241.799 252.035 241.841C251.945 241.882 251.846 241.902 251.746 241.901C249.984 241.867 247.444 241.766 245.233 241.766C242.647 241.766 241.213 241.907 238.205 241.907C236.369 241.907 235.867 240.049 236.631 239.894C240.128 239.129 242.151 239.049 245.173 237.21C245.495 236.978 245.876 236.843 246.272 236.821Z" fill="#263238"/>
<path d="M243.056 91.7637C242.466 93.334 241.83 94.7096 241.147 96.1456C240.463 97.5816 239.733 98.9572 238.949 100.34C237.361 103.174 235.472 105.829 233.314 108.258C233.026 108.566 232.731 108.875 232.423 109.177C232.276 109.325 232.122 109.479 231.961 109.627L231.438 110.103C230.938 110.553 230.339 110.879 229.69 111.056C229.215 111.181 228.721 111.21 228.236 111.143C227.994 111.112 227.756 111.056 227.525 110.975C227.323 110.903 227.125 110.816 226.936 110.714C226.424 110.431 225.979 110.042 225.629 109.573C225.407 109.287 225.214 108.979 225.053 108.654C224.632 107.768 224.317 106.835 224.115 105.876C223.934 105.03 223.814 104.225 223.706 103.426C223.34 100.309 223.25 97.1651 223.438 94.0318L226.788 93.7903C227.458 96.6824 228.128 99.635 228.879 102.373C229.066 103.044 229.288 103.715 229.509 104.332C229.671 104.841 229.896 105.328 230.179 105.782C230.219 105.835 230.259 105.862 230.232 105.782C230.112 105.612 229.95 105.476 229.763 105.386C229.658 105.327 229.548 105.278 229.435 105.238C229.294 105.187 229.148 105.151 228.999 105.131C228.702 105.091 228.4 105.107 228.108 105.178C227.821 105.248 227.551 105.378 227.318 105.56L227.606 105.238C227.72 105.124 227.827 105.003 227.934 104.876C228.149 104.634 228.356 104.372 228.564 104.117C230.263 101.892 231.763 99.5207 233.046 97.0313C233.716 95.7698 234.386 94.468 234.996 93.1662C235.606 91.8644 236.222 90.4821 236.758 89.2608L243.056 91.7637Z" fill="#FF8B7B"/>
<path d="M264.328 84.6642C268.516 85.6305 272.744 97.8835 272.744 97.8835L264.127 104.077C264.127 104.077 261.722 98.3667 259.35 93.3742C256.871 88.1401 260.047 83.6845 264.328 84.6642Z" fill="#263238"/>
<path d="M239.304 84.8991C239.304 84.8991 234.554 90.2673 239.043 123.557H262.928C263.096 119.887 260.791 101.97 264.328 84.6374C261.686 84.1302 259.014 83.794 256.329 83.6308C252.948 83.4327 249.559 83.4327 246.178 83.6308C243.857 83.8736 241.559 84.2976 239.304 84.8991Z" fill="#263238"/>
<path d="M245.22 89.4286C246.721 93.4547 239.86 104.111 239.86 104.111L229.663 97.9708C232.259 95.0074 234.489 91.7404 236.302 88.2408C239.605 81.356 244.014 86.1875 245.22 89.4286Z" fill="#263238"/>
<path d="M224.584 96.0181L220.303 94.213L222.534 90.7169C222.534 90.7169 225.569 91.039 226.688 93.0387C226.848 93.3303 226.894 93.6709 226.817 93.9945C226.74 94.3181 226.546 94.6016 226.272 94.7901L224.584 96.0181Z" fill="#FF8B7B"/>
<path d="M216.825 91.596L220.564 89.1199L222.534 90.7169L220.303 94.213L216.825 91.596Z" fill="#FF8B7B"/>
<path opacity="0.2" d="M245.803 226.984L246.031 232.325H250.5L250.272 226.984H245.803Z" fill="#1B1C1E"/>
<path opacity="0.2" d="M279.551 222.353L275.109 222.837L276.971 228.413L281.279 227.534L279.551 222.353Z" fill="#1B1C1E"/>
<path d="M257.193 68.8748C256.047 73.1627 255.592 75.7328 252.952 77.5177C248.979 80.2018 244.028 77.1218 243.873 72.5789C243.733 68.4856 245.636 62.1578 250.232 61.2988C251.244 61.1001 252.29 61.1645 253.27 61.4861C254.25 61.8077 255.131 62.3756 255.829 63.1356C256.528 63.8956 257.02 64.8223 257.259 65.8271C257.497 66.8319 257.475 67.8812 257.193 68.8748Z" fill="#FF8B7B"/>
<path d="M259.993 66.3517C260.583 66.4926 261.782 66.4054 262.861 63.9628C264.355 60.6077 257.796 61.5471 257.796 61.5471C257.796 61.5471 263.826 58.8093 258.68 56.1789C255.33 54.4677 254.071 56.0514 253.615 57.3532C253.749 56.0111 253.421 54.2261 250.345 55.1723C245.655 56.6083 249.039 60.3258 249.039 60.3258C248.545 59.9731 247.944 59.8047 247.339 59.8501C246.734 59.8954 246.165 60.1516 245.729 60.5741C244.228 61.9162 245.408 63.8152 246.855 65.5062C245.99 66.7275 245.615 68.1903 247.933 68.7339C248.348 68.8098 248.723 69.0271 248.995 69.3489C249.268 69.6706 249.42 70.0769 249.428 70.4987C249.428 72.7869 249.515 74.6524 251.103 76.1152C252.69 77.5781 258.225 75.4912 257.943 72.2232C259.291 72.0795 260.573 71.5664 261.648 70.7403C264.503 68.5057 261.153 66.8281 259.993 66.3517Z" fill="#263238"/>
<path d="M251.089 68.9486C250.632 69.9526 249.857 70.778 248.885 71.2972C247.599 71.9683 246.875 70.9885 247.17 69.7002C247.431 68.5393 248.416 66.7946 249.736 66.6537C251.056 66.5128 251.619 67.734 251.089 68.9486Z" fill="#FF8B7B"/>
<path d="M247.518 123.557C247.518 123.557 252.583 157.746 255.364 170.53C258.412 184.554 274.439 227.494 274.439 227.494L282.479 226.011C282.479 226.011 270.499 185.688 268.757 171.805C266.874 156.733 262.921 123.537 262.921 123.537L247.518 123.557Z" fill="#1155CC"/>
<path opacity="0.2" d="M250.721 135.737C256.61 136.891 255.94 158.78 255.27 170.04C253.575 162.081 251.103 146.768 249.414 135.898C249.819 135.699 250.28 135.642 250.721 135.737Z" fill="#1B1C1E"/>
<path d="M239.043 123.557C239.043 123.557 238.426 157.002 238.915 170.644C239.418 184.829 244.363 231.292 244.363 231.292H251.92C251.92 231.292 252.195 185.661 252.53 171.724C252.898 156.539 254.734 123.557 254.734 123.557H239.043Z" fill="#1155CC"/>
<path d="M272.61 224.796C272.576 224.796 274.01 227.735 274.01 227.735L283.062 226.071L282.392 223.34L272.61 224.796Z" fill="#263238"/>
<path d="M242.908 228.272C242.875 228.272 243.337 231.419 243.337 231.419H252.543L252.791 228.607L242.908 228.272Z" fill="#263238"/>
<path d="M167.098 237.143H171.895L171.862 226.031H167.071L167.098 237.143Z" fill="#7F3E3B"/>
<path d="M141.638 237.143H146.428L148.016 226.031H143.219L141.638 237.143Z" fill="#7F3E3B"/>
<path d="M146.73 236.593H141.37C141.277 236.59 141.186 236.623 141.116 236.683C141.045 236.744 141 236.829 140.988 236.922L140.358 241.183C140.346 241.29 140.357 241.4 140.389 241.503C140.422 241.607 140.476 241.702 140.548 241.783C140.62 241.864 140.709 241.929 140.808 241.974C140.907 242.018 141.014 242.041 141.122 242.042C143.005 242.008 143.909 241.894 146.274 241.894C147.735 241.894 150.743 242.048 152.753 242.048C154.763 242.048 154.884 240.035 154.046 239.874C150.294 239.069 148.82 237.948 147.554 236.888C147.326 236.69 147.032 236.585 146.73 236.593Z" fill="#263238"/>
<path d="M171.835 236.593H166.602C166.508 236.591 166.416 236.624 166.344 236.684C166.271 236.744 166.223 236.829 166.207 236.922L165.49 241.183C165.473 241.284 165.477 241.387 165.502 241.487C165.527 241.586 165.573 241.679 165.636 241.76C165.699 241.841 165.778 241.908 165.868 241.956C165.959 242.005 166.058 242.034 166.16 242.042C168.043 242.008 170.77 241.894 173.141 241.894C175.915 241.894 178.321 242.048 181.57 242.048C183.54 242.048 183.995 240.035 183.165 239.874C179.379 239.055 176.311 238.968 172.981 236.962C172.638 236.74 172.243 236.613 171.835 236.593Z" fill="#263238"/>
<path d="M168.17 85.3151L174.716 83.2148C174.716 83.2148 180.746 99.7759 182.488 101.527C184.846 103.909 188.223 110.251 190.086 113.767C189.871 114.552 188.746 116.377 188.076 116.719C183.459 113.405 177.322 107.083 176.016 104.299C173.041 97.9708 168.17 85.3151 168.17 85.3151Z" fill="#7F3E3B"/>
<path d="M166.656 81.705C164.458 85.7312 172.203 99.2458 172.203 99.2458L181.979 94.7096C181.979 94.7096 179.741 88.3952 177.135 82.9866C174.656 77.8398 169.095 77.2493 166.656 81.705Z" fill="#38761D"/>
<path d="M189.67 113.096L194.601 116.095L190.95 121.115C189.427 119.569 188.148 117.799 187.158 115.867L189.67 113.096Z" fill="#7F3E3B"/>
<path d="M198.213 120.323L195.03 122.618L190.957 121.115L194.602 116.095L198.213 120.323Z" fill="#7F3E3B"/>
<path opacity="0.2" d="M171.862 226.031L171.875 231.761H167.085L167.064 226.031H171.862Z" fill="#1B1C1E"/>
<path opacity="0.2" d="M143.219 226.031H148.016L147.199 231.761H142.402L143.219 226.031Z" fill="#1B1C1E"/>
<path d="M172.92 78.9806C172.92 78.9806 178.95 95.4813 174.22 122.477H148.586C148.311 118.531 150.315 97.3065 146.06 78.739C148.885 78.1901 151.743 77.827 154.616 77.6519C158.247 77.4404 161.886 77.4404 165.517 77.6519C168.015 77.9051 170.49 78.3493 172.92 78.9806Z" fill="#38761D"/>
<path d="M159.413 79.0745C159.413 79.0745 163.741 84.7246 162.83 122.477H167.587C167.587 122.477 169.389 90.16 164.076 78.7457C162.515 78.724 160.956 78.834 159.413 79.0745Z" fill="white"/>
<path opacity="0.2" d="M151.742 83.3222C152.244 86.3754 151.46 93.6896 148.76 102.111C148.629 94.8728 147.86 87.6603 146.462 80.5575V80.524C148.144 80.3763 151.266 80.4568 151.742 83.3222Z" fill="#1B1C1E"/>
<path d="M155.788 67.4455C156.566 70.955 157.015 75.31 154.616 77.6519C154.616 77.6519 156.11 81.2151 162.656 81.2151C168.612 81.2151 165.544 77.6519 165.544 77.6519C161.611 76.7192 161.691 71.8743 162.308 69.1432L155.788 67.4455Z" fill="#7F3E3B"/>
<path d="M154.616 77.35C156.749 79.2634 159.341 80.5885 162.14 81.195C160.994 81.9734 159.52 84.7649 159.52 84.7649C159.52 84.7649 153.986 82.6511 152.901 77.6049C153.43 77.4909 154.616 77.35 154.616 77.35Z" fill="#38761D"/>
<path opacity="0.3" d="M154.616 77.35C156.749 79.2634 159.341 80.5885 162.14 81.195C160.994 81.9734 159.52 84.7649 159.52 84.7649C159.52 84.7649 153.986 82.6511 152.901 77.6049C153.43 77.4909 154.616 77.35 154.616 77.35Z" fill="#1B1C1E"/>
<path d="M165.014 77.2158C165.014 77.2158 166.535 80.4166 163.748 81.1614C165.133 81.8598 166.294 82.9341 167.098 84.2616C167.098 84.2616 169.068 80.3226 166.703 77.4842C166.194 77.3567 165.014 77.2158 165.014 77.2158Z" fill="#38761D"/>
<path opacity="0.3" d="M165.014 77.2158C165.014 77.2158 166.535 80.4166 163.748 81.1614C165.133 81.8598 166.294 82.9341 167.098 84.2616C167.098 84.2616 169.068 80.3226 166.703 77.4842C166.194 77.3567 165.014 77.2158 165.014 77.2158Z" fill="#1B1C1E"/>
<path opacity="0.2" d="M162.287 69.1499C161.803 71.0491 161.861 73.0464 162.455 74.9141C161.898 75.1792 161.276 75.2726 160.666 75.1825C159.232 74.894 158.368 74.2364 157.175 71.8273C157.075 71.21 155.922 68.0629 155.795 67.4724L162.287 69.1499Z" fill="#1B1C1E"/>
<path d="M167.533 63.8488C167.596 64.4333 167.54 65.0245 167.37 65.587C167.2 66.1496 166.918 66.6721 166.542 67.1234C165.53 68.3178 164.11 67.6133 163.634 66.184C163.199 64.9023 163.205 62.7281 164.592 62.0571C164.901 61.9151 165.24 61.8511 165.579 61.8709C165.918 61.8906 166.248 61.9934 166.538 62.1703C166.828 62.3472 167.071 62.5927 167.245 62.8853C167.418 63.178 167.517 63.5088 167.533 63.8488Z" fill="#7F3E3B"/>
<path opacity="0.2" d="M167.533 63.8488C167.596 64.4333 167.54 65.0245 167.37 65.587C167.2 66.1496 166.918 66.6721 166.542 67.1234C165.53 68.3178 164.11 67.6133 163.634 66.184C163.199 64.9023 163.205 62.7281 164.592 62.0571C164.901 61.9151 165.24 61.8511 165.579 61.8709C165.918 61.8906 166.248 61.9934 166.538 62.1703C166.828 62.3472 167.071 62.5927 167.245 62.8853C167.418 63.178 167.517 63.5088 167.533 63.8488Z" fill="#1B1C1E"/>
<path d="M152.566 63.6743C154.522 68.0629 154.81 70.5256 157.698 72.3977C162.046 75.2362 167.225 71.8609 167.219 66.9624C167.219 62.5604 164.941 55.8501 160.01 54.8838C154.616 53.8705 150.08 58.0712 152.566 63.6743Z" fill="#7F3E3B"/>
<path d="M151.822 67.7743C152.55 68.6559 153.545 69.2755 154.656 69.5391C155.996 69.821 156.231 68.5125 155.453 67.2241C154.75 66.0632 153.51 63.8085 152.016 64.8285C151.025 65.5331 150.864 66.6738 151.822 67.7743Z" fill="#7F3E3B"/>
<path d="M167.647 66.9892C167.795 69.9552 170.756 73.6996 165.443 74.5518C162.67 74.9894 159.833 74.3796 157.483 72.8406C155.159 71.3979 154.468 67.3314 152.666 64.6071C152.586 64.5064 152.626 64.3856 152.72 64.2648C152.828 64.1412 152.965 64.0456 153.118 63.9862C153.271 63.9268 153.436 63.9055 153.6 63.9239C153.763 63.9424 153.919 64.0001 154.055 64.0922C154.191 64.1843 154.303 64.308 154.381 64.4527C154.984 65.5062 156.11 67.0429 157.624 67.1368C159.942 67.318 167.5 63.9562 167.647 66.9892Z" fill="#263238"/>
<path d="M157.37 122.477C157.37 122.477 158.04 128.516 158.824 136.696C159.762 145.963 160.921 158.001 161.658 167.174C161.654 167.215 161.654 167.255 161.658 167.295C161.798 169.04 161.919 170.65 162.026 172.167C163.065 187.124 165.483 230.654 165.483 230.654H173.604C173.604 230.654 176.753 186.232 176.605 171.006C176.471 156.351 174.2 122.477 174.2 122.477H157.37Z" fill="#263238"/>
<path d="M164.82 227.796C164.78 227.796 164.941 230.822 164.941 230.822H174.321L174.575 227.42L164.82 227.796Z" fill="#38761D"/>
<path opacity="0.2" d="M158.823 136.696C159.761 145.963 160.921 158.001 161.658 167.174C161.654 167.215 161.654 167.255 161.658 167.295C163.46 158.605 165.108 150.687 163.339 137.77L158.823 136.696Z" fill="#1B1C1E"/>
<path d="M165.121 122.477C165.121 122.477 162.328 157.163 160.364 170.905C158.214 185.957 149.35 230.627 149.35 230.627H140.566C140.566 230.627 145.33 187.144 146.087 172.247C146.911 156.076 148.579 122.457 148.579 122.457L165.121 122.477Z" fill="#263238"/>
<path d="M140.318 227.702C140.284 227.702 140.144 230.822 140.144 230.822H149.792L150.462 227.608L140.318 227.702Z" fill="#38761D"/>
<path d="M160.13 62.9496C160.224 63.3254 160.492 63.6206 160.74 63.5401C160.988 63.4596 161.108 63.1308 161.021 62.755C160.934 62.3792 160.659 62.084 160.411 62.1645C160.163 62.245 160.043 62.5671 160.13 62.9496Z" fill="#263238"/>
<path d="M164.364 62.0236C164.458 62.4061 164.726 62.6946 164.974 62.6141C165.222 62.5336 165.343 62.2115 165.255 61.829C165.168 61.4465 164.894 61.1579 164.646 61.2385C164.398 61.319 164.277 61.6411 164.364 62.0236Z" fill="#263238"/>
<path d="M163.065 62.5067C163.787 63.5694 164.648 64.5308 165.624 65.3653C165.411 65.6066 165.148 65.7975 164.852 65.924C164.557 66.0505 164.237 66.1095 163.916 66.0967L163.065 62.5067Z" fill="#630F0F"/>
<path d="M163.078 68.6936C163.093 68.6897 163.106 68.683 163.118 68.6738C163.13 68.6646 163.14 68.6531 163.148 68.64C163.155 68.6269 163.16 68.6124 163.162 68.5974C163.164 68.5825 163.163 68.5673 163.158 68.5527C163.149 68.5242 163.13 68.5002 163.104 68.4853C163.078 68.4704 163.047 68.4657 163.018 68.4722C162.551 68.5971 162.062 68.6106 161.59 68.5115C161.117 68.4124 160.675 68.2036 160.298 67.9018C160.288 67.8915 160.276 67.8832 160.262 67.8776C160.249 67.872 160.235 67.8691 160.221 67.8691C160.206 67.8691 160.192 67.872 160.179 67.8776C160.165 67.8832 160.153 67.8915 160.143 67.9018C160.132 67.9119 160.123 67.9243 160.117 67.9382C160.11 67.9521 160.107 67.9671 160.107 67.9823C160.107 67.9976 160.11 68.0126 160.117 68.0265C160.123 68.0404 160.132 68.0528 160.143 68.0629C160.547 68.3951 161.024 68.6257 161.534 68.7354C162.045 68.8452 162.574 68.8308 163.078 68.6936Z" fill="#7F3E3B"/>
<path d="M158.529 61.8424C158.562 61.8343 158.594 61.8186 158.621 61.7965C158.647 61.7744 158.669 61.7465 158.683 61.7149C158.787 61.4521 158.954 61.2187 159.169 61.0351C159.384 60.8516 159.64 60.7232 159.916 60.6614C159.948 60.66 159.98 60.6516 160.009 60.6369C160.038 60.6222 160.063 60.6014 160.084 60.576C160.104 60.5505 160.119 60.521 160.127 60.4895C160.135 60.4579 160.136 60.425 160.13 60.393C160.12 60.3329 160.087 60.2791 160.039 60.2428C159.99 60.2065 159.929 60.1906 159.869 60.1984C159.514 60.2704 159.184 60.4313 158.909 60.666C158.633 60.9007 158.422 61.2016 158.294 61.5404C158.271 61.5958 158.27 61.6579 158.291 61.7141C158.312 61.7703 158.354 61.8162 158.408 61.8424C158.448 61.8511 158.489 61.8511 158.529 61.8424Z" fill="#263238"/>
<path d="M165.912 60.091C165.944 60.0781 165.973 60.0599 165.999 60.0373C166.042 59.9945 166.066 59.9366 166.066 59.8763C166.066 59.8159 166.042 59.758 165.999 59.7152C165.764 59.4403 165.467 59.2252 165.133 59.0875C164.799 58.9499 164.436 58.8936 164.076 58.9234C164.017 58.9333 163.964 58.9664 163.928 59.0154C163.893 59.0645 163.879 59.1255 163.889 59.1851C163.9 59.2444 163.933 59.2972 163.982 59.3332C164.03 59.3692 164.09 59.3858 164.15 59.3797C164.436 59.3577 164.723 59.404 164.987 59.5148C165.252 59.6257 165.486 59.7978 165.671 60.0172C165.7 60.0506 165.739 60.0752 165.781 60.0882C165.824 60.1012 165.869 60.1022 165.912 60.091Z" fill="#263238"/>
<path d="M143.286 85.0199L149.644 87.9657C149.644 87.9657 143.514 103.614 144.559 105.822C145.986 108.835 147.105 115.525 149.43 118.759C149.309 119.544 148.371 121.444 147.748 121.839C142.663 119.095 137.645 109.09 137.37 106.084C136.74 99.2323 143.286 85.0199 143.286 85.0199Z" fill="#7F3E3B"/>
<path d="M146.06 78.739C141.544 79.41 136.734 95.1323 136.734 95.1323L147.728 99.9839C147.728 99.9839 150.408 93.0387 152.338 87.4758C154.361 81.658 150.911 78.0277 146.06 78.739Z" fill="#38761D"/>
<path d="M148.378 237.432C148.699 237.457 149.019 237.369 149.283 237.183C149.364 237.109 149.424 237.015 149.457 236.91C149.49 236.805 149.494 236.693 149.47 236.586C149.468 236.518 149.446 236.451 149.409 236.395C149.371 236.338 149.318 236.292 149.256 236.264C148.706 235.989 147.246 236.935 147.065 237.049C147.047 237.062 147.033 237.079 147.025 237.099C147.016 237.119 147.014 237.142 147.018 237.163C147.024 237.186 147.036 237.206 147.052 237.223C147.069 237.239 147.089 237.251 147.112 237.257C147.526 237.362 147.951 237.42 148.378 237.432ZM149.015 236.438C149.065 236.427 149.118 236.427 149.169 236.438C149.192 236.452 149.212 236.472 149.226 236.495C149.24 236.519 149.248 236.545 149.249 236.573C149.264 236.646 149.26 236.722 149.238 236.794C149.216 236.865 149.176 236.93 149.122 236.982C148.59 237.233 147.981 237.264 147.427 237.069C147.908 236.753 148.448 236.538 149.015 236.438Z" fill="#38761D"/>
<path d="M147.139 237.257C147.156 237.263 147.175 237.263 147.192 237.257C147.668 236.989 148.532 235.915 148.405 235.405C148.383 235.32 148.334 235.244 148.265 235.19C148.196 235.135 148.111 235.105 148.023 235.103C147.938 235.091 147.851 235.099 147.769 235.124C147.687 235.15 147.611 235.193 147.547 235.251C147.025 235.707 147.018 237.089 147.018 237.15C147.018 237.171 147.024 237.192 147.034 237.211C147.045 237.23 147.06 237.246 147.078 237.257H147.139ZM147.963 235.311H148.01C148.164 235.311 148.177 235.398 148.184 235.425C148.271 235.741 147.722 236.539 147.253 236.908C147.245 236.372 147.404 235.846 147.708 235.405C147.778 235.342 147.869 235.309 147.963 235.311Z" fill="#38761D"/>
<path d="M173.865 237.432C174.272 237.47 174.679 237.366 175.017 237.136C175.092 237.066 175.149 236.979 175.182 236.882C175.214 236.784 175.222 236.68 175.205 236.579C175.199 236.516 175.178 236.456 175.142 236.403C175.107 236.35 175.06 236.307 175.004 236.277C174.408 235.949 172.525 236.948 172.324 237.042C172.304 237.055 172.289 237.073 172.279 237.095C172.27 237.116 172.267 237.14 172.27 237.163C172.274 237.187 172.285 237.208 172.302 237.225C172.319 237.242 172.341 237.253 172.364 237.257C172.858 237.361 173.36 237.419 173.865 237.432ZM174.689 236.438C174.763 236.436 174.836 236.449 174.903 236.479C174.925 236.491 174.944 236.508 174.957 236.529C174.969 236.55 174.977 236.575 174.977 236.599C174.991 236.665 174.986 236.733 174.965 236.797C174.944 236.86 174.907 236.917 174.857 236.962C174.575 237.23 173.791 237.271 172.726 237.096C173.337 236.764 174.001 236.541 174.689 236.438Z" fill="#38761D"/>
<path d="M172.378 237.257H172.418C172.987 236.995 174.086 235.962 173.972 235.418C173.972 235.291 173.852 235.13 173.537 235.096C173.425 235.085 173.312 235.096 173.205 235.129C173.098 235.163 172.999 235.218 172.914 235.291C172.331 235.794 172.244 237.089 172.244 237.143C172.244 237.163 172.248 237.183 172.258 237.2C172.267 237.218 172.281 237.233 172.297 237.244C172.321 237.258 172.35 237.263 172.378 237.257ZM173.456 235.311H173.523C173.731 235.311 173.744 235.412 173.751 235.439C173.818 235.767 173.081 236.579 172.505 236.935C172.529 236.395 172.727 235.878 173.068 235.459C173.174 235.362 173.313 235.31 173.456 235.311Z" fill="#38761D"/>
<path d="M148.861 118.672L153.383 119.343L150.033 123.765C150.033 123.765 146.1 123.054 146.047 119.907L148.861 118.672Z" fill="#7F3E3B"/>
<path d="M156.546 122.417L153.33 126.262L150.047 123.759L153.383 119.336L156.546 122.417Z" fill="#7F3E3B"/>
<path d="M105.98 82.3894C105.98 82.3894 101.626 80.524 98.1348 82.7585C94.6441 84.993 97.5117 85.3889 93.6793 87.1403C89.8469 88.8917 94.1282 91.2806 93.6793 93.5353C93.1433 96.2194 88.6476 97.3736 91.1869 100.507C93.7262 103.641 112.848 105.245 114.932 101.346C117.015 97.4474 112.252 97.4743 113.411 94.1593C114.57 90.8444 115.166 88.7106 111.957 86.6371C108.748 84.5636 109.612 80.8595 105.98 82.3894Z" fill="#263238"/>
<path d="M119.374 110.72C119.562 111.808 119.796 113.042 120.044 114.196C120.292 115.351 120.58 116.545 120.908 117.699C121.544 120.006 122.325 122.269 123.247 124.477C123.468 125.034 123.729 125.557 123.97 126.094L124.037 126.241V126.288C124.037 126.288 124.037 126.288 124.004 126.288C123.883 126.201 123.737 126.156 123.588 126.161C123.474 126.161 123.508 126.215 123.622 126.161C123.788 126.11 123.947 126.04 124.098 125.953C124.535 125.697 124.948 125.4 125.33 125.067C127.096 123.466 128.725 121.719 130.201 119.846L132.211 121.074C131.09 123.47 129.65 125.703 127.93 127.711C127.433 128.271 126.881 128.779 126.282 129.228C125.915 129.491 125.522 129.716 125.109 129.899C124.545 130.152 123.931 130.271 123.314 130.247C122.539 130.206 121.801 129.906 121.217 129.395C120.968 129.181 120.743 128.94 120.547 128.677C120.459 128.556 120.386 128.442 120.319 128.328C120.252 128.214 120.205 128.127 120.165 128.053C119.856 127.469 119.495 126.892 119.247 126.302C118.095 123.949 117.141 121.505 116.393 118.994C116.011 117.753 115.662 116.498 115.381 115.23C115.099 113.962 114.838 112.72 114.657 111.338L119.374 110.72Z" fill="#FFB573"/>
<path d="M117.545 105.486C119.481 105.849 121.303 113.606 121.303 113.606L116.285 117.505C116.285 117.505 110.764 109.915 112.098 107.728C113.431 105.54 114.724 104.956 117.545 105.486Z" fill="#263238"/>
<path opacity="0.2" d="M117.484 107.244L119.441 115.055L116.62 117.243L117.484 107.244Z" fill="#1B1C1E"/>
<path d="M132.104 118.699L135.876 118.062L133.672 122.215C133.672 122.215 130.704 122.262 129.772 120.578L129.993 120.182C130.214 119.794 130.518 119.46 130.883 119.204C131.248 118.947 131.665 118.775 132.104 118.699Z" fill="#FFB573"/>
<path d="M139.132 119.175L137.826 122.906L133.672 122.215L135.876 118.062L139.132 119.175Z" fill="#FFB573"/>
<path d="M126.771 237.472L131.233 236.244L128.7 225.823L124.238 227.051L126.771 237.472Z" fill="#FFB573"/>
<path d="M131.233 235.459L126.248 236.908C126.161 236.932 126.086 236.987 126.037 237.062C125.987 237.137 125.967 237.228 125.98 237.317L126.556 241.431C126.575 241.534 126.615 241.633 126.673 241.719C126.732 241.806 126.809 241.88 126.898 241.935C126.987 241.99 127.087 242.026 127.191 242.039C127.295 242.053 127.401 242.045 127.501 242.015C129.23 241.478 130.04 241.136 132.231 240.498C133.571 240.102 137.497 239.116 139.36 238.572C141.223 238.029 140.787 236.157 139.963 236.217C136.265 236.479 133.511 236.163 132.057 235.546C131.801 235.42 131.509 235.389 131.233 235.459Z" fill="#263238"/>
<g opacity="0.2">
<path d="M128.7 225.829L130 231.198L125.545 232.426L124.238 227.051L128.7 225.829Z" fill="#1B1C1E"/>
</g>
<path d="M117.545 105.486C117.545 105.486 119.796 106.157 117.096 133.515L98.3359 134.696C98.1751 127.04 97.887 122.329 93.2573 106.882C95.8544 106.181 98.4989 105.669 101.17 105.352C103.99 104.97 106.834 104.791 109.679 104.815C113.351 104.896 117.545 105.486 117.545 105.486Z" fill="#F44242"/>
<g opacity="0.4">
<path d="M117.545 105.486C117.545 105.486 119.796 106.157 117.096 133.515L98.3359 134.696C98.1751 127.04 97.887 122.329 93.2573 106.882C95.8544 106.181 98.4989 105.669 101.17 105.352C103.99 104.97 106.834 104.791 109.679 104.815C113.351 104.896 117.545 105.486 117.545 105.486Z" fill="#263238"/>
</g>
<path d="M101.405 95.6826C102.115 98.3667 102.966 103.379 101.163 105.332C101.163 105.332 102.088 108.063 107.193 107.748C112.788 107.392 109.692 104.795 109.692 104.795C106.597 104.258 106.53 101.984 106.925 99.8229L101.405 95.6826Z" fill="#FFB573"/>
<path d="M101.17 105.352C103.988 104.97 106.829 104.791 109.672 104.815H110.235C110.992 106.063 111.294 108.036 109.846 111.043C109.846 111.043 102.195 108.506 100.051 105.48L101.17 105.352Z" fill="#FFB573"/>
<path opacity="0.2" d="M103.649 97.3736L106.905 99.8161C106.807 100.321 106.751 100.832 106.738 101.346C105.565 101.252 103.709 100.138 103.508 98.9237C103.394 98.4049 103.443 97.8632 103.649 97.3736Z" fill="#1B1C1E"/>
<path d="M98.155 91.1195C99.495 95.5148 99.9439 97.4071 102.738 99.1719C106.932 101.823 112.037 99.2323 112.051 94.5217C112.051 90.2875 109.893 83.7852 105.116 83.0604C104.064 82.8899 102.985 82.9919 101.983 83.3567C100.981 83.7215 100.088 84.337 99.3905 85.1447C98.6929 85.9524 98.2131 86.9254 97.9968 87.9712C97.7806 89.017 97.835 90.1008 98.155 91.1195Z" fill="#FFB573"/>
<path d="M105.967 82.7988C106.523 84.9259 101.458 92.4147 98.6307 94.468C95.9507 91.5222 96.0981 87.7174 97.2572 85.7781C98.4163 83.8389 101.17 81.7519 105.967 82.7988Z" fill="#263238"/>
<path d="M106.329 82.8659C108.573 83.5033 110.925 86.1673 109.679 86.06C108.433 85.9526 103.019 83.5503 106.329 82.8659Z" fill="#263238"/>
<path d="M117.096 133.536C117.096 133.536 122.362 167.255 124.151 181.259C126.007 195.834 130.576 229.708 130.576 229.708L124.546 231.453C124.546 231.453 115.588 198.257 112.908 184.071C109.994 168.637 103.347 134.415 103.347 134.415L117.096 133.536Z" fill="#F44242"/>
<g opacity="0.2">
<path d="M117.096 133.536C117.096 133.536 122.362 167.255 124.151 181.259C126.007 195.834 130.576 229.708 130.576 229.708L124.546 231.453C124.546 231.453 115.588 198.257 112.908 184.071C109.994 168.637 103.347 134.415 103.347 134.415L117.096 133.536Z" fill="#1B1C1E"/>
</g>
<path d="M124.111 231.802L131.153 229.748L131.019 227.353L123.052 229.372L124.111 231.802Z" fill="#263238"/>
<path d="M113.129 235.479L117.578 236.72L118.771 226.99H114.148L113.129 235.479Z" fill="#FFB573"/>
<path opacity="0.2" d="M113.565 231.828L118.061 232.808L118.771 226.99H114.148L113.565 231.828Z" fill="#1B1C1E"/>
<path d="M117.779 236.271L112.687 234.868C112.599 234.844 112.505 234.85 112.42 234.885C112.335 234.921 112.264 234.983 112.218 235.063L110.651 238.787C110.603 238.879 110.577 238.98 110.575 239.084C110.573 239.187 110.595 239.29 110.639 239.383C110.683 239.477 110.748 239.559 110.829 239.623C110.91 239.687 111.005 239.732 111.106 239.753C112.895 240.21 113.398 240.283 115.642 240.901C117.016 241.277 120.292 242.874 123.843 242.874C125.739 242.874 125.538 240.861 124.741 240.693C121.17 239.914 119.3 238.009 118.443 236.74C118.284 236.511 118.049 236.344 117.779 236.271Z" fill="#263238"/>
<path d="M112.835 133.77C112.835 133.77 130.871 172.355 129.283 184.454C127.347 199.183 119.072 230.211 119.072 230.211L112.768 228.963C112.768 228.963 116.118 197.814 117.417 183.387C118.851 167.664 99.4212 155.465 98.1951 134.71L112.835 133.77Z" fill="#F44242"/>
<path d="M112.165 230.419L119.528 232.043L120.232 229.527L112.285 227.755L112.165 230.419Z" fill="#263238"/>
<path d="M119.294 237.485C119.676 237.628 120.095 237.642 120.486 237.526C120.583 237.488 120.669 237.428 120.739 237.351C120.809 237.275 120.86 237.183 120.888 237.083C120.91 237.028 120.916 236.969 120.904 236.911C120.892 236.854 120.863 236.801 120.821 236.761C120.399 236.318 118.255 236.7 118.014 236.761C117.99 236.766 117.969 236.778 117.951 236.794C117.934 236.811 117.921 236.832 117.913 236.854C117.908 236.875 117.909 236.897 117.918 236.916C117.927 236.936 117.941 236.952 117.96 236.962C118.386 237.181 118.833 237.356 119.294 237.485ZM120.466 236.814C120.533 236.828 120.595 236.858 120.647 236.901C120.659 236.922 120.665 236.945 120.665 236.969C120.665 236.992 120.659 237.015 120.647 237.036C120.628 237.1 120.594 237.16 120.549 237.21C120.504 237.26 120.448 237.299 120.386 237.324C120.017 237.485 119.267 237.324 118.342 236.888C119.042 236.75 119.759 236.727 120.466 236.821V236.814Z" fill="#F44242"/>
<path d="M117.98 236.948H118.027C118.657 236.861 120.097 236.23 120.225 235.72C120.225 235.6 120.225 235.432 119.95 235.318C119.735 235.233 119.495 235.233 119.28 235.318C118.703 235.67 118.238 236.18 117.94 236.787C117.93 236.803 117.925 236.822 117.925 236.841C117.925 236.86 117.93 236.879 117.94 236.895L117.98 236.948ZM119.776 235.506H119.843C120.024 235.58 120.004 235.653 119.997 235.68C119.923 235.989 118.905 236.519 118.228 236.68C118.488 236.192 118.881 235.787 119.36 235.512C119.498 235.475 119.643 235.482 119.776 235.533V235.506Z" fill="#F44242"/>
<path d="M105.539 90.623C105.626 90.9921 105.887 91.2403 106.121 91.1799C106.356 91.1196 106.483 90.784 106.396 90.4217C106.309 90.0593 106.054 89.811 105.813 89.8647C105.572 89.9184 105.451 90.2606 105.539 90.623Z" fill="#263238"/>
<path d="M109.639 89.6567C109.726 90.0191 109.987 90.2673 110.228 90.2137C110.47 90.16 110.584 89.8178 110.503 89.4554C110.423 89.093 110.155 88.838 109.914 88.8984C109.672 88.9588 109.558 89.2944 109.639 89.6567Z" fill="#263238"/>
<path d="M109.82 88.9454L110.631 88.4824C110.631 88.4824 110.342 89.2474 109.82 88.9454Z" fill="#263238"/>
<path d="M108.54 90.5894C109.057 91.3417 109.675 92.0191 110.376 92.6025C110.223 92.7793 110.034 92.9203 109.821 93.0154C109.608 93.1105 109.376 93.1574 109.143 93.1528L108.54 90.5894Z" fill="#ED893E"/>
<path d="M107.488 95.0652C107.673 95.051 107.857 95.0219 108.037 94.978C108.065 94.9701 108.089 94.9518 108.104 94.9269C108.119 94.9019 108.124 94.8722 108.118 94.8438C108.11 94.8158 108.092 94.7919 108.067 94.7769C108.042 94.7619 108.012 94.757 107.984 94.7633C107.535 94.8801 107.065 94.8894 106.613 94.7903C106.16 94.6911 105.737 94.4865 105.378 94.1929C105.356 94.1736 105.329 94.1628 105.3 94.1628C105.272 94.1628 105.244 94.1736 105.223 94.1929C105.202 94.2143 105.19 94.2432 105.19 94.2734C105.19 94.3036 105.202 94.3326 105.223 94.3539C105.855 94.8817 106.669 95.1374 107.488 95.0652Z" fill="#263238"/>
<path d="M97.9071 95.4947C98.4012 96.2328 99.1674 96.7444 100.038 96.9173C101.197 97.1387 101.673 96.0852 101.271 95.0451C100.909 94.1057 99.8702 92.8642 98.7513 93.1125C98.5078 93.1716 98.2829 93.2906 98.0969 93.4586C97.9108 93.6266 97.7695 93.8384 97.6857 94.0749C97.6019 94.3113 97.5783 94.565 97.6169 94.8129C97.6556 95.0607 97.7553 95.2951 97.9071 95.4947Z" fill="#FFB573"/>
<path d="M103.696 90.1801C103.742 90.1769 103.786 90.1588 103.821 90.1286C103.856 90.0983 103.88 90.0576 103.89 90.0124C104.019 89.678 104.215 89.3738 104.466 89.1186C104.718 88.8635 105.019 88.6629 105.351 88.5294C105.405 88.5071 105.448 88.4642 105.471 88.4101C105.493 88.356 105.494 88.2951 105.471 88.2408C105.461 88.2142 105.446 88.1899 105.426 88.1694C105.406 88.1489 105.382 88.1325 105.356 88.1213C105.33 88.11 105.302 88.1041 105.273 88.1039C105.245 88.1037 105.216 88.1092 105.19 88.12C104.792 88.2765 104.432 88.5169 104.135 88.8249C103.838 89.1328 103.611 89.5012 103.468 89.905C103.46 89.9332 103.458 89.9628 103.462 89.9918C103.466 90.0209 103.475 90.0489 103.491 90.074C103.506 90.0992 103.526 90.121 103.549 90.1381C103.573 90.1552 103.6 90.1672 103.629 90.1734L103.696 90.1801Z" fill="#263238"/>
<path d="M110.429 87.4691C110.467 87.4646 110.503 87.4513 110.534 87.4303C110.566 87.4093 110.592 87.3813 110.61 87.3484C110.634 87.2956 110.637 87.2357 110.618 87.1808C110.6 87.126 110.561 87.0803 110.51 87.0531C110.2 86.8903 109.855 86.8052 109.505 86.8052C109.155 86.8052 108.81 86.8903 108.5 87.0531C108.476 87.0676 108.454 87.0867 108.438 87.1094C108.421 87.1321 108.409 87.158 108.402 87.1854C108.395 87.2128 108.393 87.2413 108.398 87.2693C108.402 87.2973 108.411 87.3241 108.426 87.3484C108.455 87.399 108.504 87.4359 108.56 87.451C108.617 87.4661 108.677 87.4581 108.728 87.4289C108.972 87.304 109.243 87.2388 109.518 87.2388C109.793 87.2388 110.064 87.304 110.309 87.4289C110.346 87.4504 110.387 87.4641 110.429 87.4691Z" fill="#263238"/>
<path d="M96.1252 113.143C95.7165 115.599 95.3145 118.115 94.9393 120.605C94.5641 123.094 94.2291 125.591 94.0348 128.06L93.9678 128.946C93.9492 129.14 93.9492 129.335 93.9678 129.529C94.039 130.072 94.142 130.61 94.276 131.14C94.5708 132.274 94.946 133.455 95.3547 134.629C96.152 136.991 97.0967 139.36 98.0347 141.722L95.9711 142.823C94.5251 140.64 93.2161 138.37 92.0516 136.025C91.4516 134.82 90.9214 133.581 90.4637 132.314C90.2122 131.623 90.0128 130.915 89.8674 130.194C89.7793 129.752 89.7344 129.302 89.7334 128.852V127.825C89.8004 125.177 89.9902 122.562 90.3029 119.981C90.5977 117.39 90.9729 114.841 91.4754 112.257L96.1252 113.143Z" fill="#FFB573"/>
<path d="M93.2774 106.882C91.4349 107.553 89.5857 114.19 89.5857 114.19L97.1969 118.947C97.1969 118.947 99.5151 113.371 98.5704 110.996C97.5922 108.513 95.3745 106.097 93.2774 106.882Z" fill="#263238"/>
<path d="M133.129 235.747C133.516 235.67 133.865 235.465 134.121 235.163C134.173 235.079 134.204 234.983 134.212 234.884C134.22 234.785 134.205 234.685 134.167 234.593C134.146 234.537 134.111 234.486 134.065 234.446C134.02 234.407 133.965 234.379 133.906 234.365C133.276 234.224 131.769 235.647 131.595 235.808C131.582 235.827 131.575 235.849 131.575 235.871C131.575 235.894 131.582 235.916 131.595 235.935C131.603 235.956 131.619 235.973 131.638 235.984C131.657 235.995 131.68 235.999 131.702 235.996C132.185 235.96 132.663 235.877 133.129 235.747ZM133.652 234.6C133.72 234.584 133.791 234.584 133.859 234.6C133.883 234.606 133.904 234.617 133.922 234.634C133.939 234.65 133.952 234.671 133.96 234.694C133.99 234.752 134.005 234.816 134.005 234.882C134.005 234.947 133.99 235.011 133.96 235.07C133.759 235.392 133.042 235.647 132.01 235.741C132.488 235.269 133.043 234.884 133.652 234.6Z" fill="#F44242"/>
<path d="M131.702 235.996C131.702 235.996 131.735 235.996 131.742 235.996C132.204 235.606 132.975 234.345 132.747 233.862C132.694 233.748 132.566 233.627 132.265 233.681C132.157 233.699 132.055 233.74 131.964 233.8C131.873 233.86 131.795 233.938 131.735 234.029C131.479 234.631 131.42 235.298 131.568 235.935C131.571 235.954 131.579 235.972 131.59 235.987C131.602 236.003 131.617 236.015 131.635 236.022L131.702 235.996ZM132.238 233.882H132.305C132.499 233.882 132.533 233.922 132.546 233.942C132.687 234.231 132.191 235.19 131.749 235.673C131.64 235.156 131.699 234.618 131.916 234.137C131.989 234.015 132.103 233.924 132.238 233.882Z" fill="#F44242"/>
<path d="M105.713 89.9184L106.53 89.4621C106.53 89.4621 106.242 90.2405 105.713 89.9184Z" fill="#263238"/>
<path d="M98.0075 133.609L97.639 135.32C97.5787 135.455 97.7395 135.582 97.9606 135.569L117.25 134.348C117.417 134.348 117.551 134.247 117.558 134.139L117.618 132.448C117.618 132.334 117.471 132.24 117.283 132.254L98.309 133.455C98.2499 133.454 98.1913 133.467 98.1387 133.494C98.086 133.521 98.0409 133.561 98.0075 133.609Z" fill="#263238"/>
<path d="M100.694 135.549H100.185C100.085 135.549 100.004 135.508 100.004 135.441L100.105 133.247C100.105 133.18 100.192 133.126 100.292 133.119L100.801 133.086C100.902 133.086 100.982 133.126 100.982 133.193L100.882 135.388C100.875 135.549 100.795 135.549 100.694 135.549Z" fill="#F44242"/>
<path d="M115.823 134.623H115.32C115.213 134.623 115.133 134.576 115.14 134.515L115.24 132.314C115.24 132.254 115.327 132.193 115.428 132.187H115.937C116.037 132.187 116.118 132.227 116.118 132.287L116.017 134.488C116.011 134.556 115.91 134.616 115.823 134.623Z" fill="#F44242"/>
<path d="M108.259 135.099L107.75 135.133C107.649 135.133 107.569 135.092 107.569 135.025L107.676 132.831C107.676 132.764 107.763 132.703 107.863 132.697H108.373C108.473 132.697 108.553 132.737 108.547 132.797L108.446 134.998C108.446 135.032 108.359 135.092 108.259 135.099Z" fill="#F44242"/>
<path d="M97.9137 141.273L101.713 144.52L97.0695 145.285C97.0695 145.285 95.2404 142.95 96.0109 141.185L97.9137 141.273Z" fill="#FFB573"/>
<path d="M102.483 148.339L98.5637 148.768L97.0696 145.285L101.713 144.52L102.483 148.339Z" fill="#FFB573"/>
<path d="M203.941 74.3303C222.369 74.3303 237.307 59.3688 237.307 40.9129C237.307 22.4569 222.369 7.49542 203.941 7.49542C185.514 7.49542 170.575 22.4569 170.575 40.9129C170.575 59.3688 185.514 74.3303 203.941 74.3303Z" fill="#FF9900"/>
<path d="M136.472 27.6331L136.03 27.1298C138.729 24.72 142.217 23.3874 145.832 23.3855V24.0565C142.38 24.0582 139.049 25.3312 136.472 27.6331Z" fill="#FF9900"/>
<path d="M132.66 33.2094L132.03 32.9746C132.425 31.9213 132.94 30.9171 133.565 29.9818L134.121 30.3575C133.529 31.2504 133.039 32.207 132.66 33.2094Z" fill="#FF9900"/>
<path d="M154.608 46.946C159.454 42.0927 159.454 34.2241 154.608 29.3708C149.763 24.5176 141.906 24.5175 137.06 29.3708C132.214 34.224 132.214 42.0927 137.06 46.946C141.906 51.7992 149.763 51.7992 154.608 46.946Z" fill="#FF9900"/>
<path d="M120.881 70.6799C125.085 70.6799 128.493 67.267 128.493 63.0569C128.493 58.8469 125.085 55.434 120.881 55.434C116.678 55.434 113.27 58.8469 113.27 63.0569C113.27 67.267 116.678 70.6799 120.881 70.6799Z" fill="#FF9900"/>
<path d="M255.029 47.1266C258.363 47.1266 261.066 44.4197 261.066 41.0806C261.066 37.7415 258.363 35.0346 255.029 35.0346C251.695 35.0346 248.992 37.7415 248.992 41.0806C248.992 44.4197 251.695 47.1266 255.029 47.1266Z" fill="#FF9900"/>
<path d="M221.697 35.1151C221.699 31.9176 220.84 28.7787 219.211 26.0288C217.582 23.2789 215.243 21.0198 212.44 19.4893C209.637 17.9588 206.473 17.2137 203.283 17.3322C200.093 17.4508 196.993 18.4288 194.311 20.1631C191.629 21.8974 189.463 24.324 188.042 27.1872C186.621 30.0505 185.997 33.2446 186.236 36.4331C186.475 39.6216 187.568 42.6866 189.4 45.3054C191.232 47.9242 193.735 49.9999 196.645 51.3139V54.461H211.238V51.3139C214.353 49.9091 216.998 47.6333 218.853 44.7597C220.708 41.8861 221.696 38.5371 221.697 35.1151Z" fill="white"/>
<path opacity="0.2" d="M209.978 63.057H197.905L196.645 54.461H211.238L209.978 63.057Z" fill="#1B1C1E"/>
<path opacity="0.4" d="M206.923 64.4862H200.96L200.344 63.0569H207.539L206.923 64.4862Z" fill="#1B1C1E"/>
<path d="M202.045 39.1682C201.634 37.9761 200.945 36.8995 200.035 36.0278C197.938 33.9341 195.345 33.2295 194.173 34.424C193.57 35.0279 193.429 36.0009 193.784 37.1551C194.195 38.3452 194.884 39.4197 195.794 40.2888C197.194 41.698 198.816 42.4764 200.096 42.4764C200.392 42.4798 200.687 42.4298 200.967 42.3287L202.152 54.5013C202.162 54.6116 202.213 54.7142 202.295 54.7887C202.377 54.8633 202.484 54.9044 202.595 54.9039H202.635C202.694 54.8989 202.751 54.8821 202.803 54.8546C202.855 54.8272 202.901 54.7895 202.939 54.7438C202.976 54.6982 203.004 54.6455 203.021 54.5888C203.038 54.5322 203.043 54.4728 203.037 54.414L201.797 41.7248C202.044 41.3512 202.195 40.923 202.238 40.4773C202.282 40.0317 202.215 39.5823 202.045 39.1682ZM196.424 39.658C195.624 38.8883 195.016 37.9414 194.648 36.8934C194.514 36.5974 194.459 36.2712 194.489 35.9474C194.52 35.6236 194.635 35.3135 194.823 35.048C194.951 34.9347 195.101 34.8478 195.263 34.7926C195.425 34.7373 195.596 34.7147 195.767 34.7259C196.725 34.7259 198.119 35.35 199.426 36.6585C200.228 37.4258 200.837 38.3735 201.201 39.4232C201.337 39.7188 201.393 40.0452 201.362 40.3693C201.331 40.6934 201.216 41.0037 201.027 41.2685C200.33 41.9932 198.32 41.5168 196.424 39.658Z" fill="#FF9900"/>
<path d="M213.69 34.424C213.08 33.8133 212.115 33.6724 210.963 34.0281C209.786 34.4586 208.717 35.1417 207.832 36.0297C206.946 36.9176 206.266 37.9889 205.837 39.1682C205.668 39.582 205.601 40.0309 205.643 40.4763C205.685 40.9217 205.834 41.3502 206.079 41.7248L204.839 54.4141C204.828 54.5323 204.864 54.6503 204.939 54.742C205.015 54.8338 205.123 54.892 205.241 54.9039H205.281C205.392 54.9044 205.499 54.8633 205.581 54.7887C205.663 54.7142 205.713 54.6116 205.724 54.5013L206.909 42.3288C207.191 42.4304 207.488 42.4805 207.787 42.4764C209.06 42.4764 210.682 41.698 212.082 40.2888C212.992 39.4197 213.681 38.3452 214.092 37.1551C214.434 36.0009 214.293 35.0279 213.69 34.424ZM213.234 36.8934C212.869 37.9426 212.261 38.8901 211.459 39.658C209.603 41.5168 207.579 41.9932 206.856 41.2685C206.667 41.0037 206.551 40.6934 206.521 40.3693C206.49 40.0453 206.546 39.7188 206.682 39.4232C207.048 38.3748 207.657 37.4276 208.457 36.6585C209.226 35.8544 210.174 35.2449 211.224 34.8803C211.517 34.7845 211.821 34.7325 212.129 34.726C212.469 34.711 212.802 34.8261 213.06 35.048C213.251 35.3144 213.369 35.627 213.399 35.9537C213.43 36.2805 213.373 36.6095 213.234 36.9068V36.8934Z" fill="#FF9900"/>
</svg>
