<svg width="24" height="24" viewBox="0 0 24 24" fill="none" xmlns="http://www.w3.org/2000/svg">
<path d="M15 3H9C8.40326 3 7.83097 3.23705 7.40901 3.65901C6.98705 4.08097 6.75 4.65326 6.75 5.25V18.75C6.75 19.3467 6.98705 19.919 7.40901 20.341C7.83097 20.7629 8.40326 21 9 21H15C15.5967 21 16.169 20.7629 16.591 20.341C17.0129 19.919 17.25 19.3467 17.25 18.75V5.25C17.25 4.65326 17.0129 4.08097 16.591 3.65901C16.169 3.23705 15.5967 3 15 3ZM15.75 18.75C15.75 18.9489 15.671 19.1397 15.5303 19.2803C15.3897 19.421 15.1989 19.5 15 19.5H9C8.80109 19.5 8.61032 19.421 8.46967 19.2803C8.32902 19.1397 8.25 18.9489 8.25 18.75V5.25C8.25 5.05109 8.32902 4.86032 8.46967 4.71967C8.61032 4.57902 8.80109 4.5 9 4.5H15C15.1989 4.5 15.3897 4.57902 15.5303 4.71967C15.671 4.86032 15.75 5.05109 15.75 5.25V18.75ZM20.25 8.25V15.75C20.25 15.9489 20.171 16.1397 20.0303 16.2803C19.8897 16.421 19.6989 16.5 19.5 16.5C19.3011 16.5 19.1103 16.421 18.9697 16.2803C18.829 16.1397 18.75 15.9489 18.75 15.75V8.25C18.75 8.05109 18.829 7.86032 18.9697 7.71967C19.1103 7.57902 19.3011 7.5 19.5 7.5C19.6989 7.5 19.8897 7.57902 20.0303 7.71967C20.171 7.86032 20.25 8.05109 20.25 8.25ZM23.25 9.75V14.25C23.25 14.4489 23.171 14.6397 23.0303 14.7803C22.8897 14.921 22.6989 15 22.5 15C22.3011 15 22.1103 14.921 21.9697 14.7803C21.829 14.6397 21.75 14.4489 21.75 14.25V9.75C21.75 9.55109 21.829 9.36032 21.9697 9.21967C22.1103 9.07902 22.3011 9 22.5 9C22.6989 9 22.8897 9.07902 23.0303 9.21967C23.171 9.36032 23.25 9.55109 23.25 9.75ZM5.25 8.25V15.75C5.25 15.9489 5.17098 16.1397 5.03033 16.2803C4.88968 16.421 4.69891 16.5 4.5 16.5C4.30109 16.5 4.11032 16.421 3.96967 16.2803C3.82902 16.1397 3.75 15.9489 3.75 15.75V8.25C3.75 8.05109 3.82902 7.86032 3.96967 7.71967C4.11032 7.57902 4.30109 7.5 4.5 7.5C4.69891 7.5 4.88968 7.57902 5.03033 7.71967C5.17098 7.86032 5.25 8.05109 5.25 8.25ZM2.25 9.75V14.25C2.25 14.4489 2.17098 14.6397 2.03033 14.7803C1.88968 14.921 1.69891 15 1.5 15C1.30109 15 1.11032 14.921 0.96967 14.7803C0.829018 14.6397 0.75 14.4489 0.75 14.25V9.75C0.75 9.55109 0.829018 9.36032 0.96967 9.21967C1.11032 9.07902 1.30109 9 1.5 9C1.69891 9 1.88968 9.07902 2.03033 9.21967C2.17098 9.36032 2.25 9.55109 2.25 9.75Z" fill="#1B1C1E"/>
</svg>
