<svg width="150" height="150" viewBox="0 0 150 150" fill="none" xmlns="http://www.w3.org/2000/svg">
<g clip-path="url(#clip0_206_950)">
<path d="M144.722 74.9967C147.038 72.299 148.662 69.0769 149.451 65.6098C150.24 62.1427 150.172 58.5354 149.251 55.1008C148.331 51.6662 146.587 48.508 144.169 45.9002C141.752 43.2924 138.735 41.3138 135.38 40.136C136.037 36.6413 135.832 33.0391 134.782 29.6417C133.732 26.2443 131.869 23.1545 129.354 20.6402C126.84 18.1259 123.75 16.2632 120.352 15.2136C116.955 14.1639 113.352 13.9592 109.858 14.617C108.681 11.2612 106.703 8.24331 104.095 5.82546C101.487 3.40761 98.3283 1.66285 94.8932 0.74266C91.4581 -0.177534 87.8503 -0.245343 84.383 0.545118C80.9157 1.33558 77.6938 2.96042 74.997 5.27857C72.2993 2.96202 69.0772 1.33864 65.6102 0.54927C62.1431 -0.240099 58.5357 -0.171622 55.1011 0.74876C51.6665 1.66914 48.5083 3.41363 45.9005 5.83089C43.2927 8.24815 41.3141 11.2652 40.1363 14.6202C36.6419 13.9635 33.04 14.1692 29.6431 15.2195C26.2461 16.2698 23.1568 18.133 20.6429 20.6475C18.129 23.162 16.2666 26.2519 15.2171 29.6491C14.1677 33.0463 13.9629 36.6482 14.6206 40.1425C11.2655 41.3203 8.24849 43.2989 5.83122 45.9067C3.41396 48.5145 1.66946 51.6727 0.749082 55.1073C-0.1713 58.5419 -0.239788 62.1492 0.549581 65.6163C1.33895 69.0834 2.96236 72.3055 5.27891 75.0032C2.96165 77.7007 1.33775 80.9231 0.548153 84.3905C-0.24144 87.8579 -0.172893 91.4657 0.747891 94.9006C1.66868 98.3355 3.41385 101.494 5.83194 104.101C8.25003 106.709 11.268 108.687 14.6238 109.864C13.9656 113.358 14.1701 116.96 15.2197 120.358C16.2693 123.755 18.1322 126.845 20.6467 129.359C23.1612 131.873 26.2513 133.736 29.6488 134.785C33.0463 135.834 36.6486 136.038 40.1428 135.38C41.3206 138.735 43.2993 141.752 45.907 144.169C48.5148 146.586 51.673 148.331 55.1076 149.251C58.5422 150.171 62.1496 150.24 65.6166 149.451C69.0837 148.661 72.3059 147.038 75.0035 144.721C77.7011 147.038 80.9234 148.662 84.3909 149.452C87.8583 150.242 91.466 150.173 94.9009 149.252C98.3359 148.331 101.494 146.586 104.102 144.168C106.709 141.75 108.687 138.732 109.864 135.376C113.359 136.034 116.961 135.83 120.358 134.78C123.756 133.73 126.846 131.868 129.36 129.353C131.874 126.839 133.737 123.749 134.787 120.351C135.837 116.954 136.041 113.352 135.383 109.857C138.738 108.68 141.756 106.701 144.173 104.093C146.591 101.485 148.335 98.327 149.255 94.8922C150.175 91.4574 150.243 87.8499 149.453 84.3828C148.663 80.9157 147.039 77.6938 144.722 74.9967Z" fill="black"/>
<path d="M61.5369 103.626L40.6952 82.7976C39.9042 82.0053 39.46 80.9316 39.46 79.8121C39.46 78.6926 39.9042 77.6188 40.6952 76.8266L43.2273 74.2913C44.0195 73.5003 45.0933 73.056 46.2128 73.056C47.3323 73.056 48.4061 73.5003 49.1983 74.2913L64.3485 89.4317L100.028 51.5156C100.796 50.701 101.856 50.2243 102.974 50.1902C104.093 50.1561 105.18 50.5673 105.996 51.3336L108.596 53.7877C109.412 54.5555 109.889 55.6158 109.923 56.7355C109.957 57.8552 109.546 58.9426 108.778 59.7587L67.6086 103.532C67.221 103.945 66.7543 104.276 66.2361 104.505C65.718 104.734 65.1592 104.857 64.5927 104.866C64.0263 104.875 63.4638 104.769 62.9389 104.556C62.4139 104.343 61.9371 104.027 61.5369 103.626Z" fill="white"/>
</g>
<defs>
<clipPath id="clip0_206_950">
<rect width="150" height="150" fill="white"/>
</clipPath>
</defs>
</svg>
